<svg xmlns="http://www.w3.org/2000/svg" width="300" height="250" viewBox="0 0 300 250">
  <g>
    <rect width="300" height="250" fill="none"/>
    <g>
      <polygon points="11.3 234.77 13.89 234.77 13.89 235.96 10 235.96 10 227.54 11.3 227.54 11.3 234.77"/>
      <path d="M19.3,233.29a3.24,3.24,0,0,1-.47,2,2.46,2.46,0,0,1-3.47.17l-.17-.17a3.31,3.31,0,0,1-.47-2v-3.07a3.21,3.21,0,0,1,.47-2,2.43,2.43,0,0,1,3.44-.2,1.89,1.89,0,0,1,.2.2,3.14,3.14,0,0,1,.47,2Zm-3.28,0a2.26,2.26,0,0,0,.16,1.15,1,1,0,0,0,1.37.3.92.92,0,0,0,.29-.3,2.16,2.16,0,0,0,.16-1.15v-3a2.12,2.12,0,0,0-.16-1.14,1,1,0,0,0-1.37-.3.92.92,0,0,0-.29.3,2.22,2.22,0,0,0-.16,1.14Z"/>
      <path d="M25,233.29a3.24,3.24,0,0,1-.47,2,2.46,2.46,0,0,1-3.47.17l-.17-.17a3.23,3.23,0,0,1-.48-2v-3.07a3.07,3.07,0,0,1,.48-2,2.43,2.43,0,0,1,3.44-.2,1.89,1.89,0,0,1,.2.2,3.14,3.14,0,0,1,.47,2Zm-3.29,0a2.16,2.16,0,0,0,.17,1.15.92.92,0,0,0,.83.46,1,1,0,0,0,.83-.46,2.16,2.16,0,0,0,.16-1.15v-3a2.12,2.12,0,0,0-.16-1.14,1,1,0,0,0-.83-.46.92.92,0,0,0-.83.46,2.13,2.13,0,0,0-.17,1.14Z"/>
      <polygon points="27.52 231.03 29.4 227.54 30.8 227.54 29.02 230.6 31.05 235.96 29.62 235.96 28.21 231.99 27.52 233.16 27.52 235.96 26.22 235.96 26.22 227.54 27.52 227.54 27.52 231.03"/>
      <polygon points="35.05 235.96 33.75 235.96 33.75 227.54 37.61 227.54 37.61 228.74 35.05 228.74 35.05 231.02 36.95 231.02 36.95 232.22 35.05 232.22 35.05 235.96"/>
      <path d="M43,233.29a3.25,3.25,0,0,1-.48,2,2.45,2.45,0,0,1-3.46.17l-.17-.17a3.17,3.17,0,0,1-.49-2v-3.07a3.14,3.14,0,0,1,.49-2,2.42,2.42,0,0,1,3.43-.2,1.89,1.89,0,0,1,.2.2,3.22,3.22,0,0,1,.48,2Zm-3.3,0a2.27,2.27,0,0,0,.17,1.15,1,1,0,0,0,1.37.3,1.07,1.07,0,0,0,.3-.3,2.26,2.26,0,0,0,.16-1.15v-3a2.22,2.22,0,0,0-.16-1.14,1,1,0,0,0-1.37-.3,1.07,1.07,0,0,0-.3.3,2.23,2.23,0,0,0-.17,1.14Z"/>
      <path d="M45.48,236h-1.3v-8.42h2a2.32,2.32,0,0,1,1.66.51,2.37,2.37,0,0,1,.76,1.9,2.25,2.25,0,0,1-1.13,2.19L48.74,236H47.38l-1.12-3.45h-.78ZM46,231.3c.55,0,.81-.06,1-.26a1.4,1.4,0,0,0,.32-1,1.38,1.38,0,0,0-.32-1c-.2-.21-.46-.27-1-.27h-.48v2.56Z"/>
      <polygon points="54.06 235.96 52.76 235.96 52.76 228.74 51.13 228.74 51.13 227.54 55.7 227.54 55.7 228.74 54.06 228.74 54.06 235.96"/>
      <polygon points="57.91 232.25 57.91 235.96 56.61 235.96 56.61 227.54 57.91 227.54 57.91 231.06 59.77 231.06 59.77 227.54 61.07 227.54 61.07 235.96 59.77 235.96 59.77 232.25 57.91 232.25"/>
      <polygon points="66.16 228.74 63.64 228.74 63.64 230.97 65.5 230.97 65.5 232.17 63.64 232.17 63.64 234.77 66.16 234.77 66.16 235.97 62.34 235.97 62.34 227.54 66.16 227.54 66.16 228.74"/>
      <path d="M72.15,229.88c-.2-.83-.57-1.25-1.11-1.25a.84.84,0,0,0-.84.83v0a1.23,1.23,0,0,0,.35.85,5.44,5.44,0,0,0,1.12.91,7.17,7.17,0,0,1,1.25,1.15,2.5,2.5,0,0,1,.53,1.54,2.12,2.12,0,0,1-2.07,2.15h-.23a2.42,2.42,0,0,1-2.55-2.27v-.1l1.25-.37c.16,1,.6,1.52,1.3,1.52a.9.9,0,0,0,1-.83.43.43,0,0,0,0-.16c0-.53-.27-.88-1.25-1.64a7,7,0,0,1-1.58-1.35,2.3,2.3,0,0,1-.46-1.4,2,2,0,0,1,2-2.08H71a2.37,2.37,0,0,1,2.36,2.12Z"/>
      <polygon points="78.18 228.74 75.67 228.74 75.67 230.97 77.53 230.97 77.53 232.17 75.67 232.17 75.67 234.77 78.18 234.77 78.18 235.97 74.37 235.97 74.37 227.54 78.18 227.54 78.18 228.74"/>
      <path d="M80.64,234.13,80.3,236H79l1.62-8.42h1.78L84.13,236H82.79l-.36-1.83Zm.89-5-.69,3.77h1.38Z"/>
      <polygon points="86.32 234.77 88.92 234.77 88.92 235.96 85.02 235.96 85.02 227.54 86.32 227.54 86.32 234.77"/>
      <rect x="89.78" y="234.61" width="1.22" height="1.35"/>
      <g>
        <path d="M48.68,225.41a21.35,21.35,0,0,1-21.09-18.13l-2.12.2a2.13,2.13,0,0,1-2.27-2v-.13l-.09-9.89a2.12,2.12,0,0,1,2-2.13c.27,0,3.62-.36,5.46-.51a21.32,21.32,0,0,1,36.27,0c1.84.15,5.2.48,5.46.51a2.12,2.12,0,0,1,2,2.13s-.09,9.91-.09,9.89A2.13,2.13,0,0,1,72,207.49H71.9l-2.12-.2a21.35,21.35,0,0,1-21.09,18.13" fill="#ffbf0f"/>
        <polygon points="38.37 205.98 39.82 205.98 40.97 208.6 42.18 205.98 43.65 205.98 44.5 210.89 43.03 210.89 42.62 208.06 42.6 208.06 41.24 210.89 40.66 210.89 39.36 208.06 39.34 208.06 38.87 210.89 37.41 210.89 38.37 205.98"/>
        <rect x="46.25" y="205.98" width="1.47" height="4.91"/>
        <polygon points="51.27 209.8 53.04 209.8 53.04 210.89 49.8 210.89 49.8 205.98 51.27 205.98 51.27 209.8"/>
        <polygon points="57.91 205.98 59.74 205.98 57.49 208.3 59.94 210.89 58.04 210.89 56.13 208.75 56.12 208.75 56.12 210.89 54.65 210.89 54.65 205.98 56.12 205.98 56.12 208 56.13 208 57.91 205.98"/>
        <path d="M42.73,192.65,42,191.17h-.33v1.48h-1v-4h1.57a1.24,1.24,0,0,1,1.34,1.15.31.31,0,0,1,0,.1,1.14,1.14,0,0,1-.63,1l.86,1.65Zm-.49-3.09h-.55v.8h.55a.4.4,0,0,0,.4-.4.39.39,0,0,0-.4-.4h0"/>
        <polygon points="45.21 192.62 45.21 188.66 47.9 188.66 47.9 189.52 46.18 189.52 46.18 190.18 47.65 190.18 47.65 191.05 46.18 191.05 46.18 191.75 47.9 191.75 47.9 192.62 45.21 192.62"/>
        <path d="M51.66,192.65l-.18-.6H50.26l-.2.6h-1l1.44-4h.75l1.44,4Zm-.77-2.5-.35,1h.69Z"/>
        <polygon points="53.95 192.62 53.95 188.66 54.92 188.66 54.92 191.75 56.59 191.75 56.59 192.62 53.95 192.62"/>
        <path d="M72.87,195.48a.75.75,0,0,0-.75-.74h0c-2-.22-4.05-.4-6.13-.56a19.93,19.93,0,0,0-34.62,0c-2.09.16-4.13.34-6.14.56h0a.74.74,0,0,0-.74.74h0l.08,9.9h0a.76.76,0,0,0,.75.75h0c1.15-.13,2.31-.24,3.48-.35a20,20,0,0,0,39.76,0c1.17.11,2.33.22,3.47.35h0a.76.76,0,0,0,.75-.75h0Zm-24.19-9.65A18.22,18.22,0,0,1,63.91,194c-4.94-.33-10-.51-15.24-.51s-10.29.18-15.22.51a18.24,18.24,0,0,1,15.23-8.19m-3.27,33.86a4.63,4.63,0,0,0-.83.13,1.06,1.06,0,0,1-.23-.19c-.06-.08-.11-.16-.16-.24a1.87,1.87,0,0,1,0-.53,1.71,1.71,0,0,1,.12-.84,4.56,4.56,0,0,1,.24-.55c.09-.12.17-.24.25-.37.08.17.18.11.28.18a1.43,1.43,0,0,1-.09.27c0,.08,0,.15,0,.23s.46,1.67.46,1.72a.6.6,0,0,1,0,.19m5,.11h0c-1.16,0-1.1.37-2.6.08a11.54,11.54,0,0,0-1.94-.23,3.85,3.85,0,0,1-.28-1.25c0-.22,0-.51.05-.62a2.23,2.23,0,0,1,.18-.45c0-.06.08-.05.08,0s0,.17.06.19.11-.2.13-.25a.38.38,0,0,1,.14-.14s0,.2.08.21.05,0,.06-.07c0-.22,0-.22.24-.32a4.4,4.4,0,0,0,.38-.37c1.41.62,2.61-.25,3.5.2v.74a2.27,2.27,0,0,0,0,.58,3.29,3.29,0,0,1-.17,1c-.05.1-.1.13-.1.17s.1,0,.14.1a.21.21,0,0,1,0,.19.1.1,0,0,0,0,.14m.06,0h0m.71,0a3.2,3.2,0,0,1-.32-.57,3.37,3.37,0,0,1,.05-.95,2.69,2.69,0,0,0,.16-.29l0,0h.06v0a.69.69,0,0,1,.09.34,4.4,4.4,0,0,1,0,.81.21.21,0,0,0,0,.19v.13s.1,0,.15.08,0,.19,0,.26h-.09m13.1-6.38-.13-2.4-.88,2.34L62.56,211l-.24,2.5-1.38-2.1.37,2.47-1.87-1.67,1,2.27-2.24-1.13,1.59,1.93-2.46-.51,2.08,1.43-2.5.13,2.33.88-2.38.79,2.5.24c-2.4.74-2,2.41-7.3,1.7,0-.06-.16-.15-.19-.19s-.07-.17-.16-.23a.47.47,0,0,1-.09-.28,4.37,4.37,0,0,1-.06-.72.64.64,0,0,1,0-.24c0-.08,0-.12.07-.19a.83.83,0,0,0,0-.35c0-.14.12-.81.12-.81a.85.85,0,0,0,.62-.48s.16-.17.33-.43a6.15,6.15,0,0,0,.3-1.06c0-.06.13-.49.15-.54s.27-.32.4-.52.07-.19.2-.34a.33.33,0,0,1,.38,0,7.37,7.37,0,0,0,.94,0c.08,0,.25-.13.3-.13s.12,0,.19,0a.44.44,0,0,0,.22-.16s.06,0,.09-.07a.33.33,0,0,0,0-.48,1.07,1.07,0,0,0-.27-.08,3.17,3.17,0,0,1-.36-.28c-.18-.14-.54-.36-.57-.41a1.14,1.14,0,0,0-.15-.23c0-.07,0-.1,0-.15s-.27,0-.27,0a1.45,1.45,0,0,1-.23-.19.52.52,0,0,0-.29-.18c-.07,0-.11.06-.1.15s0,.1,0,.13a.09.09,0,0,1,0,.14,1,1,0,0,0-.35.17,3.55,3.55,0,0,1-1.62.69,1.24,1.24,0,0,0-.67,0c-1.41.13-2.83.2-4.25.19h0c-.09,0-.32-.08-.68-.1s-.93-.07-1.19-.07a1,1,0,0,0-.79.33,1.09,1.09,0,0,0-.29.44c0,.15,0,1.41,0,1.87,0,.29-.19,1-.19,1s-.23,0-.32.32-.23.34-.29.44a.54.54,0,0,0-.09.25.67.67,0,0,1,.29-.31,1.08,1.08,0,0,0-.27.63.76.76,0,0,1,.29-.35,1.1,1.1,0,0,0-.33.68l.11-.15a.24.24,0,0,1,0,.12l.15-.1a1.23,1.23,0,0,0-.25.48,1,1,0,0,1,.25-.31,1.69,1.69,0,0,0-.2.66,1.22,1.22,0,0,1,.38-.57.75.75,0,0,0,.32-.59,4.12,4.12,0,0,1,.23-.58.49.49,0,0,0-.08-.53,8.09,8.09,0,0,0,.15-1,5.81,5.81,0,0,0,.1-1.25c0-.54.06-.57.06-.57a5.06,5.06,0,0,0,.13,1.17,10.68,10.68,0,0,1-.06,1.79,2.31,2.31,0,0,1-.28.62.8.8,0,0,0-.09.43,16.68,16.68,0,0,1-.06,1.79.4.4,0,0,0-.08.23c0,.08.09.09.12.12a1.83,1.83,0,0,0,.18.3,25.19,25.19,0,0,0-7-1.8,18.27,18.27,0,0,1-6.44-12.41c5.84-.47,11.93-.72,18.18-.73s12.34.26,18.19.73a18.27,18.27,0,0,1-2.54,7.83"/>
        <path d="M30.67,201.74c0,1.25-.06,1.52-.43,2a2.28,2.28,0,0,1-1.68.74,2.12,2.12,0,0,1-1.68-.63c-.36-.46-.42-.7-.42-1.94v-3.31c0-1.25.06-1.5.42-2a2.36,2.36,0,0,1,1.68-.75,2.11,2.11,0,0,1,1.68.63c.38.47.43.7.43,1.94V199l-1.33,0v-1.13c0-.78-.2-1.07-.76-1.05s-.8.31-.8,1.11v4.49c0,.79.21,1.08.77,1.06s.79-.31.79-1.11v-1.49l1.33,0Z" fill="#fff"/>
        <path d="M32.91,202.47l-.25,1.63-1.25.09,1.35-8.64,1.57-.1,1.57,8.46-1.26.06-.31-1.57Zm.85-3.95-.12-.84-.08-.69-.06.68-.12.88L33,201.4l1.12-.06Z" fill="#fff"/>
        <polygon points="38.22 202.72 40.34 202.62 40.34 203.69 36.91 203.84 36.91 195.3 38.22 195.24 38.22 202.72" fill="#fff"/>
        <polygon points="42.77 203.63 41.44 203.66 41.44 195.11 42.77 195.08 42.77 203.63" fill="#fff"/>
        <polygon points="45.27 199.68 45.27 203.58 43.95 203.6 43.95 195.06 47.32 195 47.32 196.06 45.27 196.09 45.27 198.61 47.14 198.58 47.14 199.65 45.27 199.68" fill="#fff"/>
        <path d="M52.43,200.93c0,1.26-.07,1.53-.44,2a2.36,2.36,0,0,1-3.35,0h0c-.37-.46-.42-.71-.42-2v-3.3c0-1.25.05-1.49.42-2a2.25,2.25,0,0,1,1.68-.68,2.15,2.15,0,0,1,1.67.68c.39.49.44.72.44,2Zm-2.89.63c0,.79.2,1.08.77,1.08s.79-.28.79-1.08v-4.48c0-.79-.21-1.09-.77-1.09s-.79.29-.79,1.09Z" fill="#fff"/>
        <path d="M55.8,195.09c.86,0,1.15.1,1.39.41a2.81,2.81,0,0,1,.31,1.61v.63c0,1.16-.21,1.5-1,1.6.79.21,1,.56,1,1.79v1.07a3.58,3.58,0,0,0,.25,1.52l-1.34-.05a5.28,5.28,0,0,1-.24-1.67v-.75c0-1.1-.17-1.52-.62-1.53H55v3.91H53.64V195Zm-.87,3.66h.79c.38,0,.45-.12.45-.88v-.81c0-.75-.07-.92-.45-.94h-.79Z" fill="#fff"/>
        <polygon points="61.38 203.88 59.68 197.19 59.73 197.75 59.8 198.56 59.83 199.08 59.96 203.82 58.73 203.76 58.73 195.21 60.09 195.27 61.51 200.55 61.63 201.03 61.73 201.5 61.8 201.82 61.77 201.33 61.68 200.26 61.64 199.61 61.54 195.34 62.81 195.42 62.82 203.97 61.38 203.88" fill="#fff"/>
        <polygon points="65.43 204.14 64.1 204.05 64.09 195.52 65.43 195.61 65.43 204.14" fill="#fff"/>
        <path d="M68,202.72l-.25,1.61-1.26-.11,1.36-8.41,1.57.13L71,204.63l-1.25-.12-.32-1.68Zm.86-3.82-.12-.85-.09-.71,0,.67-.12.86-.34,2.81,1.11.09Z" fill="#fff"/>
        <path d="M63.7,214.44a2.9,2.9,0,0,0-3.49,2.82,2.55,2.55,0,0,0,.13.87,18.31,18.31,0,0,0,3.36-3.67" fill="#fff"/>
        <path d="M71.16,208.12a.9.9,0,1,1-.93.9.9.9,0,0,1,.89-.9h0m0,1.61a.71.71,0,1,0-.68-.73v0a.68.68,0,0,0,.65.71h0m-.36-1.21h.38c.25,0,.4.08.4.3a.25.25,0,0,1-.25.26h0l.27.44h-.21l-.24-.43H71v.44h-.2Zm.2.41h.18c.11,0,.2,0,.2-.13s-.12-.13-.21-.13H71Z"/>
      </g>
    </g>
  </g>
</svg>
