<svg xmlns="http://www.w3.org/2000/svg" width="160" height="600" viewBox="0 0 160 600">
  <g>
    <rect width="160" height="600" fill="none"/>
    <g>
      <polygon points="59.14 588.47 62.15 588.47 62.15 589.85 57.63 589.85 57.63 580.06 59.14 580.06 59.14 588.47"/>
      <path d="M68.45,586.74a3.76,3.76,0,0,1-.56,2.31,2.85,2.85,0,0,1-4,.2l-.19-.2a3.76,3.76,0,0,1-.56-2.31v-3.56a3.76,3.76,0,0,1,.56-2.31,2.82,2.82,0,0,1,4-.24,2.61,2.61,0,0,1,.23.24,3.76,3.76,0,0,1,.56,2.31Zm-3.82,0a2.55,2.55,0,0,0,.18,1.34,1.16,1.16,0,0,0,1.6.35,1.26,1.26,0,0,0,.34-.35,2.66,2.66,0,0,0,.19-1.34v-3.46a2.53,2.53,0,0,0-.19-1.33,1.16,1.16,0,0,0-1.6-.34,1.22,1.22,0,0,0-.34.34,2.63,2.63,0,0,0-.18,1.33Z"/>
      <path d="M75.09,586.74a3.82,3.82,0,0,1-.55,2.31,2.85,2.85,0,0,1-4,.2,1.89,1.89,0,0,1-.2-.2,3.67,3.67,0,0,1-.57-2.31v-3.56a3.67,3.67,0,0,1,.57-2.31,2.82,2.82,0,0,1,4-.24l.24.24a3.75,3.75,0,0,1,.55,2.31Zm-3.83,0a2.56,2.56,0,0,0,.19,1.34,1.07,1.07,0,0,0,1,.54,1.16,1.16,0,0,0,1-.54,2.56,2.56,0,0,0,.19-1.34v-3.46a2.53,2.53,0,0,0-.19-1.33,1.15,1.15,0,0,0-1-.53,1.07,1.07,0,0,0-1,.53,2.53,2.53,0,0,0-.19,1.33Z"/>
      <polygon points="78 584.11 80.19 580.06 81.82 580.06 79.74 583.62 82.11 589.85 80.45 589.85 78.81 585.23 78 586.6 78 589.85 76.49 589.85 76.49 580.06 78 580.06 78 584.11"/>
      <polygon points="86.77 589.85 85.25 589.85 85.25 580.06 89.73 580.06 89.73 581.46 86.77 581.46 86.77 584.1 88.97 584.1 88.97 585.5 86.77 585.5 86.77 589.85"/>
      <path d="M96,586.74a3.76,3.76,0,0,1-.56,2.31,2.85,2.85,0,0,1-4,.2l-.19-.2a3.67,3.67,0,0,1-.57-2.31v-3.56a3.67,3.67,0,0,1,.57-2.31,2.82,2.82,0,0,1,4-.24,2.61,2.61,0,0,1,.23.24,3.76,3.76,0,0,1,.56,2.31Zm-3.84,0a2.67,2.67,0,0,0,.2,1.34,1.16,1.16,0,0,0,1.6.35,1.26,1.26,0,0,0,.34-.35,2.66,2.66,0,0,0,.19-1.34v-3.46a2.64,2.64,0,0,0-.19-1.33,1.16,1.16,0,0,0-1.6-.34,1.22,1.22,0,0,0-.34.34,2.64,2.64,0,0,0-.2,1.33Z"/>
      <path d="M98.89,589.85H97.38v-9.79h2.37a2.54,2.54,0,0,1,2.82,2.8,2.58,2.58,0,0,1-1.32,2.54l1.43,4.45H101.1l-1.29-4h-.92Zm.56-5.42c.65,0,1-.06,1.15-.31A1.55,1.55,0,0,0,101,583a1.54,1.54,0,0,0-.37-1.16c-.23-.24-.53-.31-1.15-.31h-.56v3Z"/>
      <polygon points="108.87 589.85 107.36 589.85 107.36 581.46 105.47 581.46 105.47 580.06 110.78 580.06 110.78 581.46 108.87 581.46 108.87 589.85"/>
      <polygon points="113.36 585.53 113.36 589.85 111.84 589.85 111.84 580.06 113.36 580.06 113.36 584.15 115.52 584.15 115.52 580.06 117.03 580.06 117.03 589.85 115.52 589.85 115.52 585.53 113.36 585.53"/>
      <polygon points="122.94 581.46 120.02 581.46 120.02 584.04 122.18 584.04 122.18 585.44 120.02 585.44 120.02 588.47 122.94 588.47 122.94 589.86 118.51 589.86 118.51 580.06 122.94 580.06 122.94 581.46"/>
      <path d="M129.92,582.78c-.23-1-.67-1.45-1.3-1.45a1,1,0,0,0-1,1v0a1.46,1.46,0,0,0,.42,1,6.61,6.61,0,0,0,1.29,1.07,7.67,7.67,0,0,1,1.46,1.33,2.88,2.88,0,0,1,.62,1.79A2.46,2.46,0,0,1,129,590h-.27a2.8,2.8,0,0,1-3-2.64.49.49,0,0,1,0-.12l1.46-.43c.18,1.16.7,1.77,1.51,1.77a1.07,1.07,0,0,0,1.16-1v-.2c0-.61-.32-1-1.46-1.9a8.14,8.14,0,0,1-1.84-1.57,2.73,2.73,0,0,1-.54-1.63,2.4,2.4,0,0,1,2.36-2.42h.19a2.77,2.77,0,0,1,2.75,2.46Z"/>
      <polygon points="136.93 581.46 134.01 581.46 134.01 584.04 136.17 584.04 136.17 585.44 134.01 585.44 134.01 588.47 136.93 588.47 136.93 589.86 132.49 589.86 132.49 580.06 136.93 580.06 136.93 581.46"/>
      <path d="M139.79,587.73l-.4,2.12h-1.48l1.88-9.79h2.07l2,9.79h-1.56l-.42-2.12Zm1-5.78-.8,4.39h1.61Z"/>
      <polygon points="146.4 588.47 149.41 588.47 149.41 589.85 144.89 589.85 144.89 580.06 146.4 580.06 146.4 588.47"/>
      <rect x="150.42" y="588.28" width="1.42" height="1.57"/>
      <g>
        <path d="M102.62,577.58a24.86,24.86,0,0,1-24.54-21.09l-2.46.24A2.48,2.48,0,0,1,73,554.41v-.15l-.1-11.5a2.46,2.46,0,0,1,2.3-2.48c.31,0,4.21-.42,6.35-.6a24.8,24.8,0,0,1,42.19,0c2.13.18,6,.56,6.34.6a2.46,2.46,0,0,1,2.31,2.48s-.1,11.52-.1,11.5a2.48,2.48,0,0,1-2.49,2.47h-.15c-.82-.09-1.65-.16-2.47-.24a24.84,24.84,0,0,1-24.53,21.09" fill="#ffbf0f"/>
        <polygon points="90.62 554.97 92.31 554.97 93.64 558.02 95.06 554.97 96.76 554.97 97.76 560.68 96.05 560.68 95.57 557.4 95.54 557.4 93.97 560.68 93.28 560.68 91.78 557.4 91.75 557.4 91.21 560.68 89.51 560.68 90.62 554.97"/>
        <rect x="99.79" y="554.97" width="1.71" height="5.71"/>
        <polygon points="105.63 559.43 107.69 559.43 107.69 560.68 103.92 560.68 103.92 554.97 105.63 554.97 105.63 559.43"/>
        <polygon points="113.35 554.97 115.48 554.97 112.86 557.67 115.71 560.68 113.5 560.68 111.29 558.2 111.27 558.2 111.27 560.68 109.56 560.68 109.56 554.97 111.27 554.97 111.27 557.33 111.29 557.33 113.35 554.97"/>
        <path d="M95.69,539.47l-.82-1.72h-.38v1.72H93.36v-4.6h1.82a1.46,1.46,0,0,1,1.57,1.33v.12a1.32,1.32,0,0,1-.73,1.21l1,1.92Zm-.56-3.59h-.64v.93h.64a.47.47,0,1,0,0-.93h0"/>
        <polygon points="98.58 539.43 98.58 534.83 101.71 534.83 101.71 535.83 99.71 535.83 99.71 536.61 101.42 536.61 101.42 537.62 99.71 537.62 99.71 538.42 101.71 538.42 101.71 539.43 98.58 539.43"/>
        <path d="M106.09,539.47l-.22-.69h-1.41l-.24.69h-1.17l1.67-4.6h.88l1.67,4.6Zm-.9-2.91-.41,1.23h.8Z"/>
        <polygon points="108.74 539.43 108.74 534.83 109.88 534.83 109.88 538.42 111.81 538.42 111.81 539.43 108.74 539.43"/>
        <path d="M130.75,542.77a.87.87,0,0,0-.87-.87h0c-2.34-.25-4.71-.46-7.13-.65a23.19,23.19,0,0,0-40.27,0c-2.43.19-4.81.4-7.14.65h0a.86.86,0,0,0-.86.87h0l.1,11.51h0a.87.87,0,0,0,.86.87h0c1.34-.15,2.69-.28,4.06-.4a23.2,23.2,0,0,0,46.23,0c1.36.12,2.72.25,4,.4h0a.86.86,0,0,0,.86-.87h0Zm-28.13-11.23a21.22,21.22,0,0,1,17.71,9.53q-8.61-.59-17.72-.59c-6.08,0-12,.2-17.71.58a21.26,21.26,0,0,1,17.72-9.52m-3.8,39.38a8,8,0,0,0-1,.15,1.71,1.71,0,0,1-.26-.21c-.07-.09-.13-.19-.19-.28a2.56,2.56,0,0,1,0-.62,1.94,1.94,0,0,1,.14-1,5.17,5.17,0,0,1,.28-.64,4,4,0,0,0,.28-.43c.09.2.22.13.33.22a1.08,1.08,0,0,1-.11.3c-.05.1,0,.18,0,.28s.53,1.93.53,2a.81.81,0,0,1,0,.22m5.82.13h0c-1.35,0-1.28.44-3,.1a12.24,12.24,0,0,0-2.26-.27,4.77,4.77,0,0,1-.32-1.45c0-.26,0-.6.06-.73a2.36,2.36,0,0,1,.21-.52c0-.07.1,0,.1,0s0,.2.06.22.13-.23.15-.29a.44.44,0,0,1,.17-.16s0,.24.09.24.06,0,.07-.08c.06-.25,0-.25.27-.37a4.57,4.57,0,0,0,.45-.43c1.64.72,3-.29,4.07.24v.85a2.57,2.57,0,0,0,0,.68,4.51,4.51,0,0,1-.2,1.21c0,.11-.11.14-.12.19s.12,0,.16.12a.22.22,0,0,1,0,.22.12.12,0,0,0,0,.16m.07,0h0m.83.06a5.38,5.38,0,0,1-.38-.66,3.69,3.69,0,0,1,.07-1.1,2.21,2.21,0,0,0,.18-.34l0-.06h.07v.06a.78.78,0,0,1,.1.39,4.9,4.9,0,0,1,0,.94.31.31,0,0,0,0,.23v.15c0,.05.13.05.18.09s0,.22,0,.3h-.1m15.24-7.42-.16-2.79-1,2.72-.9-2.69-.29,2.91-1.6-2.44.43,2.88-2.18-2,1.2,2.64-2.61-1.31,1.85,2.24-2.86-.59,2.42,1.66-2.91.16,2.72,1-2.77.91,2.91.28c-2.8.87-2.29,2.81-8.49,2,0-.08-.19-.19-.23-.23a1,1,0,0,0-.18-.27.55.55,0,0,1-.11-.33,5.69,5.69,0,0,1-.06-.83.54.54,0,0,1,0-.28c0-.09,0-.14.08-.23a.77.77,0,0,0,0-.4c0-.16.14-.94.14-.94a1,1,0,0,0,.73-.56s.18-.2.38-.5a5.77,5.77,0,0,0,.35-1.23,5.49,5.49,0,0,0,.18-.63c0-.06.3-.38.46-.61s.08-.22.23-.39a.43.43,0,0,1,.45-.05,6.61,6.61,0,0,0,1.09,0c.1,0,.29-.15.34-.15s.15,0,.23,0a.51.51,0,0,0,.25-.18c0-.06.07-.06.11-.09a.42.42,0,0,0,.1-.28.43.43,0,0,0-.15-.28,1.68,1.68,0,0,0-.32-.09,3.39,3.39,0,0,1-.42-.33c-.21-.16-.63-.41-.66-.47a1.27,1.27,0,0,0-.18-.27c0-.08,0-.12,0-.18s-.31,0-.32,0a1.78,1.78,0,0,1-.26-.22.57.57,0,0,0-.33-.2c-.09,0-.13.06-.12.17s0,.11,0,.16a.1.1,0,0,1,0,.15,1.18,1.18,0,0,0-.41.19,4.11,4.11,0,0,1-1.88.81,1.43,1.43,0,0,0-.78,0,48,48,0,0,1-5,.22h0a7.94,7.94,0,0,0-.79-.11c-.42,0-1.08-.09-1.39-.09a1.18,1.18,0,0,0-.91.39,1.27,1.27,0,0,0-.34.51c0,.17,0,1.64,0,2.18-.06.33-.22,1.11-.22,1.11s-.27,0-.37.38-.27.39-.34.5a.76.76,0,0,0-.1.3.68.68,0,0,1,.33-.36,1.22,1.22,0,0,0-.3.73.89.89,0,0,1,.33-.41,1.28,1.28,0,0,0-.38.8l.13-.18v.14l.16-.12a1.73,1.73,0,0,0-.28.56,1.25,1.25,0,0,1,.28-.36,2.07,2.07,0,0,0-.22.77,1.49,1.49,0,0,1,.43-.67.84.84,0,0,0,.38-.68,5.6,5.6,0,0,1,.26-.68.57.57,0,0,0-.08-.61,11.8,11.8,0,0,0,.17-1.19,6.45,6.45,0,0,0,.11-1.45c0-.63.08-.66.08-.66a6.23,6.23,0,0,0,.15,1.36,11.91,11.91,0,0,1-.08,2.07,2.39,2.39,0,0,1-.32.73.94.94,0,0,0-.11.5c0,.19,0,2-.06,2.08a.56.56,0,0,0-.1.27c0,.09.11.1.14.14a1.94,1.94,0,0,0,.21.34c-1.09-.24-3.41-1.65-8.12-2.09a21.21,21.21,0,0,1-7.5-14.43c6.8-.54,13.88-.84,21.15-.85s14.35.31,21.15.85a21.06,21.06,0,0,1-2.95,9.11"/>
        <path d="M81.66,550c0,1.46-.06,1.77-.49,2.31a2.64,2.64,0,0,1-2,.86,2.47,2.47,0,0,1-2-.73c-.42-.54-.49-.82-.49-2.26v-3.85c0-1.46.07-1.75.49-2.29a2.72,2.72,0,0,1,2-.87,2.45,2.45,0,0,1,2,.73c.44.54.49.81.49,2.25v.63l-1.54,0v-1.31c0-.91-.23-1.25-.89-1.23s-.92.36-.92,1.29v5.22c0,.93.24,1.26.89,1.24s.92-.35.92-1.29v-1.73l1.54,0Z" fill="#fff"/>
        <path d="M84.28,550.89l-.3,1.9-1.45.11,1.56-10,1.83-.12,1.83,9.84-1.46.08-.36-1.84Zm1-4.59-.13-1-.11-.81-.06.79-.14,1-.39,3.33,1.29-.08Z" fill="#fff"/>
        <polygon points="90.45 551.18 92.92 551.08 92.92 552.31 88.92 552.49 88.92 542.56 90.45 542.48 90.45 551.18" fill="#fff"/>
        <polygon points="95.74 552.25 94.2 552.28 94.2 542.34 95.74 542.3 95.74 552.25" fill="#fff"/>
        <polygon points="98.65 547.65 98.65 552.19 97.11 552.21 97.11 542.27 101.03 542.21 101.03 543.44 98.65 543.48 98.65 546.4 100.83 546.37 100.83 547.62 98.65 547.65" fill="#fff"/>
        <path d="M107,549.11c0,1.46-.07,1.78-.5,2.29a2.75,2.75,0,0,1-3.9,0h0c-.43-.54-.49-.83-.49-2.27v-3.84c0-1.45.06-1.74.49-2.28a2.61,2.61,0,0,1,2-.8,2.51,2.51,0,0,1,2,.8c.44.57.5.84.5,2.28Zm-3.35.73c0,.91.23,1.26.89,1.26s.92-.33.92-1.26v-5.21c0-.92-.24-1.27-.89-1.27s-.92.33-.92,1.27Z" fill="#fff"/>
        <path d="M110.9,542.31c1,0,1.34.12,1.61.48a3.22,3.22,0,0,1,.36,1.88v.72c0,1.36-.24,1.75-1.15,1.87.93.24,1.15.64,1.15,2.08v1.24a4.18,4.18,0,0,0,.3,1.78l-1.56-.07a5.81,5.81,0,0,1-.28-1.94v-.88c0-1.28-.2-1.76-.73-1.77h-.66v4.55h-1.56v-10Zm-1,4.25h.91c.44,0,.53-.13.53-1v-.94c0-.88-.09-1.08-.53-1.09h-.91Z" fill="#fff"/>
        <polygon points="117.38 552.54 115.41 544.76 115.46 545.4 115.55 546.35 115.58 546.96 115.74 552.47 114.31 552.4 114.31 542.45 115.89 542.52 117.54 548.67 117.67 549.22 117.79 549.77 117.88 550.14 117.84 549.57 117.74 548.33 117.69 547.57 117.57 542.61 119.06 542.7 119.06 552.65 117.38 552.54" fill="#fff"/>
        <polygon points="122.1 552.84 120.56 552.73 120.54 542.81 122.1 542.92 122.1 552.84" fill="#fff"/>
        <path d="M125,551.18l-.29,1.88-1.46-.12,1.58-9.79,1.82.16,1.85,10.1-1.45-.15-.37-1.94Zm1-4.43-.14-1-.1-.82-.07.78-.13,1-.4,3.27,1.3.11Z" fill="#fff"/>
        <path d="M120.09,564.82a3.23,3.23,0,0,0-.69-.07A3.36,3.36,0,0,0,116,568.1a3.24,3.24,0,0,0,.16,1,21.73,21.73,0,0,0,3.91-4.27" fill="#fff"/>
        <path d="M128.76,557.47a1,1,0,1,1-1.08,1,1,1,0,0,1,1-1h0m0,1.87a.82.82,0,1,0-.79-.85v0a.79.79,0,0,0,.76.82h0m-.41-1.41h.43c.3,0,.47.09.47.35a.3.3,0,0,1-.28.31h0l.31.51H129l-.29-.5h-.14v.51h-.23Zm.23.49h.2c.13,0,.24,0,.24-.16s-.14-.15-.24-.15h-.2Z"/>
      </g>
    </g>
  </g>
</svg>
