<svg xmlns="http://www.w3.org/2000/svg" width="160" height="600" viewBox="0 0 160 600">
  <g>
    <rect width="160" height="600" fill="none"/>
    <g>
      <path d="M20.52,30.18c0,4.1-1.8,6.29-5.21,6.29a4.7,4.7,0,0,1-4.25-2.11c-.71-1.16-.91-2.27-.91-5.09V23.94c0-3,.23-4.07,1.11-5.26a4.81,4.81,0,0,1,4-1.77c3.24,0,5.15,2.16,5.15,5.89v.57H17.5V23c0-2.17-.77-3.31-2.25-3.31a1.9,1.9,0,0,0-1.71.94,5.12,5.12,0,0,0-.46,2.74v6.32a8,8,0,0,0,.32,2.81,2,2,0,0,0,1.91,1.23c1.5,0,2.27-1.23,2.27-3.7,0-.09,0-.29,0-.49h3Z" fill="#fff"/>
      <path d="M25.75,17.2h4l3.85,19h-3l-.8-4.13h-4L25,36.19H22.1Zm3.56,12.15-1.57-8.51L26.2,29.35Z" fill="#fff"/>
      <path d="M35.74,17.2h2.93V33.48h5.84v2.71H35.74Z" fill="#fff"/>
      <path d="M46.54,17.2h2.93v19H46.54Z" fill="#fff"/>
      <path d="M52.15,17.2h8.69v2.7H55.09V25h4.27v2.7H55.09v8.46H52.15Z" fill="#fff"/>
      <path d="M72.94,30.15a7.22,7.22,0,0,1-1.08,4.5,5.53,5.53,0,0,1-8.2,0,7.22,7.22,0,0,1-1.08-4.5V23.23a7.24,7.24,0,0,1,1.08-4.5,5.53,5.53,0,0,1,8.2,0,7.24,7.24,0,0,1,1.08,4.5Zm-7.43-.06a5.29,5.29,0,0,0,.37,2.59,2.23,2.23,0,0,0,3.76,0A4.88,4.88,0,0,0,70,30.09v-6.8a5,5,0,0,0-.37-2.59,2.23,2.23,0,0,0-3.76,0,5.29,5.29,0,0,0-.37,2.59Z" fill="#fff"/>
      <path d="M75.47,17.2h4.59a5.32,5.32,0,0,1,3.76,1.13,5.38,5.38,0,0,1,1.7,4.3c0,2.4-.85,4.05-2.56,4.93l2.79,8.63H82.68l-2.51-7.81H78.41v7.81H75.47Zm4,8.48c1.25,0,1.82-.14,2.28-.6a3.09,3.09,0,0,0,.71-2.28,3.11,3.11,0,0,0-.71-2.3c-.46-.46-1-.6-2.28-.6H78.41v5.78Z" fill="#fff"/>
      <path d="M88,17.2h3L95.71,29V17.2h2.8v19H95.89L90.76,23.54V36.19H88Z" fill="#fff"/>
      <path d="M101.19,17.2h2.93v19h-2.93Z" fill="#fff"/>
      <path d="M110,17.2h4l3.84,19h-3l-.8-4.13h-4l-.77,4.13h-2.87Zm3.56,12.15L112,20.84l-1.53,8.51Z" fill="#fff"/>
      <path d="M21.37,62a4.1,4.1,0,0,1-3.56-1.59,6.57,6.57,0,0,1-2.53.48,4.86,4.86,0,0,1-4-1.82,7.29,7.29,0,0,1-1.08-4.5V47.63a7.33,7.33,0,0,1,1.08-4.5,4.8,4.8,0,0,1,4.1-1.82,4.78,4.78,0,0,1,4.1,1.82,7.26,7.26,0,0,1,1.09,4.5v6.92a7.83,7.83,0,0,1-.72,3.9,1.9,1.9,0,0,0,1.57.8ZM13.08,54.5a5.16,5.16,0,0,0,.38,2.59,2.23,2.23,0,0,0,3.75,0,4.8,4.8,0,0,0,.37-2.59V47.69a4.84,4.84,0,0,0-.37-2.59,2.22,2.22,0,0,0-3.75,0,5.14,5.14,0,0,0-.38,2.59Z" fill="#fff"/>
      <path d="M33,54.47c0,2.39-.28,3.61-1.08,4.69a4.73,4.73,0,0,1-4,1.71,4.7,4.7,0,0,1-3.93-1.71c-.79-1.08-1.08-2.3-1.08-4.69V41.6h2.94V55c0,2.22.62,3.16,2.1,3.16S30.1,57.17,30.1,55V41.6H33Z" fill="#fff"/>
      <path d="M35.71,41.6H44.3v2.7H38.64v5h4.18V52H38.64v5.86H44.3v2.71H35.71Z" fill="#fff"/>
      <path d="M48.56,54.69c.37,2.25,1.36,3.42,2.93,3.42A2.06,2.06,0,0,0,53.65,56c0-1.2-.57-1.94-2.82-3.7-2.64-2.11-2.73-2.2-3.47-3.11a5.15,5.15,0,0,1-1-3.16,4.63,4.63,0,0,1,4.95-4.67c2.71,0,4.53,1.63,5.33,4.76l-2.82.82c-.46-1.85-1.31-2.82-2.51-2.82A1.89,1.89,0,0,0,49.35,46a2.86,2.86,0,0,0,.8,1.91A16.75,16.75,0,0,0,52.66,50a16,16,0,0,1,2.82,2.56A5.65,5.65,0,0,1,56.7,56c0,2.88-2.11,4.84-5.21,4.84s-5.15-1.76-5.75-5.35Z" fill="#fff"/>
      <path d="M69.1,54.55A7.22,7.22,0,0,1,68,59.05a5.53,5.53,0,0,1-8.2,0,7.22,7.22,0,0,1-1.08-4.5V47.63a7.26,7.26,0,0,1,1.08-4.5,4.8,4.8,0,0,1,4.1-1.82A4.79,4.79,0,0,1,68,43.13a7.26,7.26,0,0,1,1.08,4.5Zm-7.43,0A5.31,5.31,0,0,0,62,57.09a2.24,2.24,0,0,0,3.76,0,4.9,4.9,0,0,0,.37-2.59V47.69a5,5,0,0,0-.37-2.59,2.23,2.23,0,0,0-3.76,0,5.29,5.29,0,0,0-.37,2.59Z" fill="#fff"/>
      <path d="M76.16,41.6h8.69v2.7H79.09v5.13h4.28v2.7H79.09v8.46H76.16Z" fill="#fff"/>
      <path d="M86.85,41.6h4.58a5.25,5.25,0,0,1,3.76,1.14A5.34,5.34,0,0,1,96.9,47c0,2.39-.86,4-2.57,4.92l2.79,8.63H94.05l-2.51-7.8H89.78v7.8H86.85Zm4,8.48c1.25,0,1.82-.14,2.28-.6a3.07,3.07,0,0,0,.71-2.27,3.12,3.12,0,0,0-.71-2.31c-.46-.46-1-.6-2.28-.6H89.78v5.78Z" fill="#fff"/>
      <path d="M99.34,41.6h8.6v2.7h-5.66v5h4.18V52h-4.18v5.86h5.66v2.71h-8.6Z" fill="#fff"/>
      <path d="M112.2,54.69c.37,2.25,1.36,3.42,2.93,3.42A2.06,2.06,0,0,0,117.29,56c0-1.2-.57-1.94-2.82-3.7-2.64-2.11-2.73-2.2-3.47-3.11A5.15,5.15,0,0,1,110,46a4.63,4.63,0,0,1,5-4.67c2.7,0,4.53,1.63,5.32,4.76l-2.81.82c-.46-1.85-1.31-2.82-2.51-2.82A1.89,1.89,0,0,0,113,46a2.86,2.86,0,0,0,.8,1.91,17,17,0,0,0,2.5,2.08,15.32,15.32,0,0,1,2.82,2.56A5.6,5.6,0,0,1,120.34,56c0,2.88-2.11,4.84-5.21,4.84s-5.16-1.76-5.75-5.35Z" fill="#fff"/>
      <path d="M132.73,54.58c0,4.1-1.8,6.29-5.21,6.29a4.72,4.72,0,0,1-4.25-2.1c-.71-1.17-.91-2.28-.91-5.1V48.35c0-3,.23-4.08,1.11-5.27a4.81,4.81,0,0,1,4-1.77c3.24,0,5.15,2.17,5.15,5.9v.57h-2.93v-.4c0-2.17-.77-3.31-2.25-3.31a1.92,1.92,0,0,0-1.71.94,5.15,5.15,0,0,0-.45,2.74v6.32a8.13,8.13,0,0,0,.31,2.82,2,2,0,0,0,1.91,1.22c1.51,0,2.27-1.22,2.27-3.7a4.75,4.75,0,0,0,0-.48h3Z" fill="#fff"/>
      <path d="M145.34,54.55a7.22,7.22,0,0,1-1.08,4.5,5.53,5.53,0,0,1-8.2,0,7.22,7.22,0,0,1-1.09-4.5V47.63a7.26,7.26,0,0,1,1.09-4.5,5.53,5.53,0,0,1,8.2,0,7.26,7.26,0,0,1,1.08,4.5Zm-7.43,0a5.19,5.19,0,0,0,.37,2.59,2.1,2.1,0,0,0,1.88,1,2.12,2.12,0,0,0,1.88-1,4.9,4.9,0,0,0,.37-2.59V47.69A5,5,0,0,0,142,45.1a2.11,2.11,0,0,0-1.88-1,2.09,2.09,0,0,0-1.88,1,5.17,5.17,0,0,0-.37,2.59Z" fill="#fff"/>
      <path d="M10.35,66h4.87a5.35,5.35,0,0,1,4,1.22,5.82,5.82,0,0,1,1.51,4.45,5.78,5.78,0,0,1-1.51,4.41,5.35,5.35,0,0,1-4,1.22H13.28V85H10.35Zm4.22,8.6c2.36,0,3.1-.71,3.1-3s-.74-2.94-3.1-2.94H13.28v5.9Z" fill="#fff"/>
      <path d="M32.89,78.87c0,2.39-.29,3.61-1.08,4.7a4.77,4.77,0,0,1-4,1.7,4.71,4.71,0,0,1-3.93-1.7c-.8-1.09-1.08-2.31-1.08-4.7V66h2.93V79.35c0,2.22.63,3.16,2.11,3.16S30,81.57,30,79.35V66h2.93Z" fill="#fff"/>
      <path d="M38.49,68.7H34.82V66h10.3v2.7h-3.7V85H38.49Z" fill="#fff"/>
      <path d="M49.08,79.1c.37,2.25,1.36,3.41,2.93,3.41a2.06,2.06,0,0,0,2.16-2.16c0-1.2-.57-1.94-2.81-3.7-2.65-2.11-2.74-2.19-3.48-3.11a5.15,5.15,0,0,1-1.05-3.16,4.63,4.63,0,0,1,5-4.67c2.71,0,4.53,1.63,5.33,4.76l-2.82.82c-.46-1.85-1.31-2.81-2.51-2.81a1.87,1.87,0,0,0-1.9,1.93,2.85,2.85,0,0,0,.79,1.91,18.14,18.14,0,0,0,2.51,2.08A16,16,0,0,1,56,77a5.59,5.59,0,0,1,1.22,3.47c0,2.88-2.11,4.84-5.21,4.84s-5.15-1.76-5.75-5.35Z" fill="#fff"/>
      <path d="M63.62,66h2.94V85H63.62Z" fill="#fff"/>
      <path d="M72.16,68.7H68.49V66h10.3v2.7h-3.7V85H72.16Z" fill="#fff"/>
      <path d="M94.94,79a7.22,7.22,0,0,1-1.09,4.5,5.53,5.53,0,0,1-8.2,0A7.29,7.29,0,0,1,84.57,79V72a7.29,7.29,0,0,1,1.08-4.5,5.51,5.51,0,0,1,8.2,0A7.22,7.22,0,0,1,94.94,72Zm-7.44,0a5.14,5.14,0,0,0,.38,2.59,2.23,2.23,0,0,0,3.75,0A4.8,4.8,0,0,0,92,78.9V72.09a4.84,4.84,0,0,0-.37-2.59,2.23,2.23,0,0,0-3.75,0,5.14,5.14,0,0,0-.38,2.59Z" fill="#fff"/>
      <path d="M96.5,66h3l2.85,14.43L104.9,66h3l-3.68,19h-3.64Z" fill="#fff"/>
      <path d="M110,66h8.59v2.7h-5.66v5h4.18v2.71h-4.18v5.87h5.66V85H110Z" fill="#fff"/>
      <path d="M120.68,66h4.58A5.25,5.25,0,0,1,129,67.14a5.35,5.35,0,0,1,1.71,4.3c0,2.39-.86,4-2.57,4.92L131,85h-3.07l-2.51-7.8h-1.76V85h-2.93Zm4,8.48c1.25,0,1.82-.14,2.28-.59a3.12,3.12,0,0,0,.71-2.28A3.15,3.15,0,0,0,127,69.3c-.46-.45-1-.6-2.28-.6h-1.08v5.78Z" fill="#fff"/>
      <path d="M12.77,93.11H9.1V90.4H19.41v2.71H15.7v16.28H12.77Z" fill="#fff"/>
      <path d="M21.33,90.4h2.94v7.92h4.18V90.4h2.94v19H28.45V101H24.27v8.37H21.33Z" fill="#fff"/>
      <path d="M34.07,90.4h8.6v2.71H37v5h4.19v2.7H37v5.87h5.67v2.7h-8.6Z" fill="#fff"/>
      <path d="M51.46,93.11H47.79V90.4H58.1v2.71H54.4v16.28H51.46Z" fill="#fff"/>
      <path d="M70.13,103.36a7.21,7.21,0,0,1-1.08,4.49,5.51,5.51,0,0,1-8.2,0,7.21,7.21,0,0,1-1.08-4.49V96.44a7.22,7.22,0,0,1,1.08-4.5A4.76,4.76,0,0,1,65,90.12a4.76,4.76,0,0,1,4.1,1.82,7.22,7.22,0,0,1,1.08,4.5Zm-7.43-.06a5.29,5.29,0,0,0,.37,2.59,2.23,2.23,0,0,0,3.76,0,4.88,4.88,0,0,0,.37-2.59V96.49a5,5,0,0,0-.37-2.59,2.24,2.24,0,0,0-3.76,0,5.31,5.31,0,0,0-.37,2.59Z" fill="#fff"/>
      <path d="M72.66,90.4h4.87c1.91,0,3.1.37,4,1.23A5.79,5.79,0,0,1,83,96.07a5.78,5.78,0,0,1-1.5,4.41,5.35,5.35,0,0,1-4,1.23H75.59v7.68H72.66ZM76.87,99c2.37,0,3.11-.71,3.11-3s-.74-2.93-3.11-2.93H75.59V99Z" fill="#fff"/>
      <path d="M81.94,106.35H84.7v3H81.94Z" fill="#fff"/>
    </g>
  </g>
</svg>
