<svg xmlns="http://www.w3.org/2000/svg" width="300" height="250" viewBox="0 0 300 250">
  <g>
    <rect width="300" height="250" fill="none"/>
    <g>
      <path d="M21.35,29.25c0,4.5-2,6.91-5.72,6.91A5.14,5.14,0,0,1,11,33.84c-.79-1.28-1-2.5-1-5.59V22.41c0-3.29.25-4.47,1.21-5.79a5.27,5.27,0,0,1,4.41-1.93c3.56,0,5.66,2.37,5.66,6.47v.62H18v-.44c0-2.37-.85-3.62-2.47-3.62a2.1,2.1,0,0,0-1.88,1,5.63,5.63,0,0,0-.5,3v6.94a8.89,8.89,0,0,0,.35,3.09,2.17,2.17,0,0,0,2.09,1.34c1.66,0,2.5-1.34,2.5-4.06a4,4,0,0,0,0-.53h3.25Z" fill="#fff"/>
      <path d="M24.07,15h5a5.73,5.73,0,0,1,4.12,1.25A5.88,5.88,0,0,1,35.1,21c0,2.62-.94,4.44-2.81,5.4l3.06,9.47H32l-2.75-8.56H27.29v8.56H24.07Zm4.4,9.31c1.38,0,2-.15,2.5-.65a3.37,3.37,0,0,0,.79-2.5A3.41,3.41,0,0,0,31,18.62c-.5-.5-1.12-.65-2.5-.65H27.29v6.34Z" fill="#fff"/>
      <path d="M37.91,15h3.22V35.84H37.91Z" fill="#fff"/>
      <path d="M46.66,29.37c.41,2.47,1.5,3.75,3.22,3.75a2.25,2.25,0,0,0,2.37-2.37c0-1.31-.62-2.13-3.09-4.06-2.91-2.32-3-2.41-3.81-3.41a5.66,5.66,0,0,1-1.16-3.47c0-3,2.25-5.12,5.44-5.12,3,0,5,1.78,5.84,5.22l-3.09.9c-.5-2-1.44-3.09-2.75-3.09a2.05,2.05,0,0,0-2.09,2.12,3.16,3.16,0,0,0,.87,2.1,18.75,18.75,0,0,0,2.75,2.28A17.05,17.05,0,0,1,54.25,27a6.13,6.13,0,0,1,1.35,3.81c0,3.16-2.31,5.32-5.72,5.32-3.56,0-5.66-1.94-6.31-5.88Z" fill="#fff"/>
      <path d="M57.85,15h5.34c2.09,0,3.41.41,4.38,1.34,1.12,1.07,1.65,2.66,1.65,4.88s-.53,3.78-1.65,4.84c-1,.94-2.29,1.35-4.38,1.35H61.07v8.43H57.85Zm4.62,9.44c2.6,0,3.41-.78,3.41-3.25S65.07,18,62.47,18h-1.4v6.47Z" fill="#fff"/>
      <path d="M75.06,27.72,70.38,15h3.56l2.78,8.81L79.6,15h3.5L78.28,27.72v8.12H75.06Z" fill="#fff"/>
      <path d="M90,15H99.5v3H93.19v5.62h4.69v3H93.19v9.28H90Z" fill="#fff"/>
      <path d="M101.44,15h3.22V32.87h6.4v3h-9.62Z" fill="#fff"/>
      <path d="M116.31,15h4.41l4.22,20.84h-3.32l-.87-4.53h-4.44l-.84,4.53h-3.16Zm3.91,13.34L118.5,19l-1.69,9.34Z" fill="#fff"/>
      <path d="M138,29.12c0,2.63-.32,4-1.19,5.16a5.23,5.23,0,0,1-4.34,1.88,5.18,5.18,0,0,1-4.32-1.88c-.87-1.19-1.18-2.53-1.18-5.16V15h3.21V29.66c0,2.43.69,3.46,2.32,3.46s2.28-1,2.28-3.46V15H138Z" fill="#fff"/>
      <path d="M143.78,18h-4V15h11.31v3H147V35.84h-3.22Z" fill="#fff"/>
      <path d="M155.21,15h4.41l4.22,20.84h-3.31l-.88-4.53h-4.44l-.84,4.53h-3.16Zm3.91,13.34L157.4,19l-1.69,9.34Z" fill="#fff"/>
      <path d="M168.37,29.37c.41,2.47,1.5,3.75,3.22,3.75A2.26,2.26,0,0,0,174,30.75c0-1.31-.62-2.13-3.09-4.06-2.91-2.32-3-2.41-3.81-3.41a5.66,5.66,0,0,1-1.16-3.47c0-3,2.25-5.12,5.44-5.12,3,0,5,1.78,5.84,5.22l-3.09.9c-.5-2-1.44-3.09-2.75-3.09a2.06,2.06,0,0,0-2.1,2.12,3.17,3.17,0,0,0,.88,2.1,18.75,18.75,0,0,0,2.75,2.28A17.05,17.05,0,0,1,176,27a6.13,6.13,0,0,1,1.35,3.81c0,3.16-2.32,5.32-5.72,5.32-3.56,0-5.66-1.94-6.31-5.88Z" fill="#fff"/>
      <path d="M10.19,43.19h5.1c4.09,0,6,2.1,6,6.54v7.78c0,4.43-1.94,6.53-6,6.53h-5.1ZM15,61.07c2.28,0,3.09-1.19,3.09-4.44v-6c0-3.28-.81-4.44-3.09-4.44h-1.6V61.07Z" fill="#fff"/>
      <path d="M24.26,43.19h9.43v3H27.48v5.5h4.59v3H27.48v6.44h6.21v3H24.26Z" fill="#fff"/>
      <path d="M38.35,57.57c.4,2.47,1.5,3.75,3.22,3.75a2.27,2.27,0,0,0,2.37-2.38c0-1.31-.62-2.12-3.09-4.06-2.91-2.31-3-2.4-3.81-3.4A5.66,5.66,0,0,1,35.88,48c0-3,2.25-5.13,5.44-5.13,3,0,5,1.78,5.84,5.22L44.07,49c-.5-2-1.44-3.1-2.75-3.1A2.07,2.07,0,0,0,39.22,48a3.13,3.13,0,0,0,.88,2.09,18.75,18.75,0,0,0,2.75,2.28,17.37,17.37,0,0,1,3.09,2.82A6.1,6.1,0,0,1,47.29,59c0,3.15-2.32,5.31-5.72,5.31-3.57,0-5.66-1.94-6.32-5.87Z" fill="#fff"/>
      <path d="M49.54,43.19H59v3H52.75v5.5h4.6v3h-4.6v6.44H59v3H49.54Z" fill="#fff"/>
      <path d="M61.19,43.19h5a5.81,5.81,0,0,1,4.13,1.25,5.89,5.89,0,0,1,1.87,4.72c0,2.63-.94,4.44-2.81,5.41L72.47,64H69.1l-2.75-8.56H64.41V64H61.19Zm4.41,9.32c1.37,0,2-.16,2.5-.66a3.38,3.38,0,0,0,.78-2.5,3.41,3.41,0,0,0-.78-2.53c-.5-.5-1.13-.66-2.5-.66H64.41v6.35Z" fill="#fff"/>
      <path d="M73.85,43.19h3.34L80.31,59l2.75-15.85h3.29L82.31,64h-4Z" fill="#fff"/>
      <path d="M88.44,43.19h9.44v3H91.66v5.5h4.59v3H91.66v6.44h6.22v3H88.44Z" fill="#fff"/>
      <path d="M104.87,43.19h5A5.8,5.8,0,0,1,114,44.44a5.9,5.9,0,0,1,1.88,4.72c0,2.63-.94,4.44-2.82,5.41L116.16,64h-3.38L110,55.48h-1.94V64h-3.22Zm4.41,9.32c1.38,0,2-.16,2.5-.66a3.38,3.38,0,0,0,.78-2.5,3.41,3.41,0,0,0-.78-2.53c-.5-.5-1.12-.66-2.5-.66h-1.19v6.35Z" fill="#fff"/>
      <path d="M118.59,43.19H128v3h-6.22v5.5h4.59v3h-4.59v6.44H128v3h-9.44Z" fill="#fff"/>
      <path d="M134.12,43.19h4.41L142.75,64h-3.32l-.87-4.53h-4.44L133.28,64h-3.16ZM138,56.54l-1.72-9.35-1.69,9.35Z" fill="#fff"/>
      <path d="M145,43.19h3.22V61.07h6.41v3H145Z" fill="#fff"/>
      <path d="M172.53,57.44c0,4.5-2,6.91-5.72,6.91A5.15,5.15,0,0,1,162.15,62c-.78-1.28-1-2.5-1-5.6V50.6c0-3.28.25-4.47,1.22-5.78a5.27,5.27,0,0,1,4.41-1.94c3.56,0,5.65,2.38,5.65,6.47V50h-3.22v-.44c0-2.38-.84-3.63-2.47-3.63a2.09,2.09,0,0,0-1.87,1,5.56,5.56,0,0,0-.5,3v6.94a9,9,0,0,0,.34,3.1,2.2,2.2,0,0,0,2.1,1.34c1.65,0,2.5-1.34,2.5-4.06a3.86,3.86,0,0,0,0-.53h3.25Z" fill="#fff"/>
      <path d="M178.4,43.19h4.41L187,64h-3.31l-.87-4.53H178.4L177.56,64H174.4Zm3.91,13.35-1.72-9.35-1.69,9.35Z" fill="#fff"/>
      <path d="M22.29,93.76A4.5,4.5,0,0,1,18.38,92a7.12,7.12,0,0,1-2.78.53,5.3,5.3,0,0,1-4.44-2C10.32,89.36,10,88,10,85.61V78c0-2.34.34-3.75,1.18-4.93a5.23,5.23,0,0,1,4.5-2,5.21,5.21,0,0,1,4.5,2c.85,1.18,1.19,2.59,1.19,4.93v7.6a8.73,8.73,0,0,1-.78,4.28,2.07,2.07,0,0,0,1.72.87Zm-9.1-8.22a5.8,5.8,0,0,0,.41,2.85,2.3,2.3,0,0,0,2.06,1.12,2.31,2.31,0,0,0,2.07-1.12c.34-.63.4-1.16.4-2.85V78.08a5.49,5.49,0,0,0-.4-2.85,2.31,2.31,0,0,0-2.07-1.12,2.3,2.3,0,0,0-2.06,1.12,5.8,5.8,0,0,0-.41,2.85Z" fill="#fff"/>
      <path d="M35.35,85.51c0,2.63-.31,4-1.19,5.16a5.2,5.2,0,0,1-4.34,1.87,5.14,5.14,0,0,1-4.31-1.87c-.88-1.19-1.19-2.53-1.19-5.16V71.39h3.22V86c0,2.44.69,3.47,2.31,3.47s2.28-1,2.28-3.47V71.39h3.22Z" fill="#fff"/>
      <path d="M38.51,71.39h9.43v3H41.72v5.5h4.6v3h-4.6v6.43h6.22v3H38.51Z" fill="#fff"/>
      <path d="M52.6,85.76c.4,2.47,1.5,3.75,3.22,3.75a2.26,2.26,0,0,0,2.37-2.37c0-1.31-.62-2.13-3.09-4.06-2.91-2.32-3-2.41-3.81-3.41a5.66,5.66,0,0,1-1.16-3.47c0-3,2.25-5.12,5.44-5.12,3,0,5,1.78,5.84,5.21l-3.09.91c-.5-2-1.44-3.09-2.75-3.09a2.06,2.06,0,0,0-2.1,2.12,3.17,3.17,0,0,0,.88,2.1,18.75,18.75,0,0,0,2.75,2.28,17.42,17.42,0,0,1,3.09,2.81,6.13,6.13,0,0,1,1.35,3.81c0,3.16-2.32,5.31-5.72,5.31-3.57,0-5.66-1.93-6.32-5.87Z" fill="#fff"/>
      <path d="M75.25,85.61c0,2.34-.34,3.75-1.18,4.93a6.06,6.06,0,0,1-9,0c-.85-1.18-1.19-2.59-1.19-4.93V78c0-2.34.34-3.75,1.19-4.93a5.21,5.21,0,0,1,4.5-2,5.23,5.23,0,0,1,4.5,2c.84,1.18,1.18,2.59,1.18,4.93Zm-8.15-.07a5.83,5.83,0,0,0,.4,2.85,2.46,2.46,0,0,0,4.13,0c.34-.63.4-1.16.4-2.85V78.08a5.49,5.49,0,0,0-.4-2.85,2.46,2.46,0,0,0-4.13,0,5.83,5.83,0,0,0-.4,2.85Z" fill="#fff"/>
      <path d="M83,71.39h9.53v3H86.22V80h4.69v3H86.22v9.28H83Z" fill="#fff"/>
      <path d="M94.47,71.39h5a5.76,5.76,0,0,1,4.13,1.25,5.86,5.86,0,0,1,1.87,4.72c0,2.62-.94,4.43-2.81,5.4l3.06,9.47h-3.37l-2.75-8.56H97.69v8.56H94.47Zm4.41,9.31c1.37,0,2-.16,2.5-.66a3.38,3.38,0,0,0,.78-2.5,3.42,3.42,0,0,0-.78-2.53c-.5-.5-1.13-.65-2.5-.65H97.69V80.7Z" fill="#fff"/>
      <path d="M108.19,71.39h9.43v3h-6.21v5.5H116v3h-4.59v6.43h6.21v3h-9.43Z" fill="#fff"/>
      <path d="M122.28,85.76c.41,2.47,1.5,3.75,3.22,3.75a2.26,2.26,0,0,0,2.37-2.37c0-1.31-.62-2.13-3.09-4.06-2.91-2.32-3-2.41-3.81-3.41a5.66,5.66,0,0,1-1.16-3.47c0-3,2.25-5.12,5.44-5.12,3,0,5,1.78,5.84,5.21L128,77.2c-.5-2-1.44-3.09-2.75-3.09a2.06,2.06,0,0,0-2.1,2.12,3.17,3.17,0,0,0,.88,2.1,18.75,18.75,0,0,0,2.75,2.28,17.05,17.05,0,0,1,3.09,2.81,6.13,6.13,0,0,1,1.35,3.81c0,3.16-2.32,5.31-5.72,5.31-3.56,0-5.66-1.93-6.31-5.87Z" fill="#fff"/>
      <path d="M144.93,85.64c0,4.5-2,6.9-5.71,6.9a5.15,5.15,0,0,1-4.66-2.31c-.78-1.28-1-2.5-1-5.59V78.79c0-3.28.25-4.46,1.22-5.78a5.25,5.25,0,0,1,4.4-1.93c3.57,0,5.66,2.37,5.66,6.46v.63h-3.22v-.44c0-2.37-.84-3.62-2.47-3.62a2.07,2.07,0,0,0-1.87,1,5.53,5.53,0,0,0-.5,3v6.94a9,9,0,0,0,.34,3.09,2.19,2.19,0,0,0,2.1,1.34c1.65,0,2.5-1.34,2.5-4.06a3,3,0,0,0,0-.53h3.25Z" fill="#fff"/>
      <path d="M158.9,85.61c0,2.34-.34,3.75-1.19,4.93a6.06,6.06,0,0,1-9,0c-.84-1.18-1.18-2.59-1.18-4.93V78c0-2.34.34-3.75,1.18-4.93a6.06,6.06,0,0,1,9,0c.85,1.18,1.19,2.59,1.19,4.93Zm-8.15-.07a5.83,5.83,0,0,0,.4,2.85,2.46,2.46,0,0,0,4.13,0c.34-.63.4-1.16.4-2.85V78.08a5.49,5.49,0,0,0-.4-2.85,2.46,2.46,0,0,0-4.13,0,5.83,5.83,0,0,0-.4,2.85Z" fill="#fff"/>
      <path d="M161.46,88.89h3v3.34h-3Z" fill="#fff"/>
    </g>
  </g>
</svg>
