<svg xmlns="http://www.w3.org/2000/svg" width="300" height="600" viewBox="0 0 300 600">
  <g>
    <rect width="300" height="600" fill="none"/>
    <g>
      <rect x="20" y="173" width="117" height="31" fill="#256d68"/>
      <g>
        <path d="M44.27,191.49c.26,1.58,1,2.41,2.06,2.41a1.46,1.46,0,0,0,1.52-1.53c0-.84-.4-1.36-2-2.6a11.75,11.75,0,0,1-2.44-2.18,3.62,3.62,0,0,1-.74-2.22,3.25,3.25,0,0,1,3.48-3.28c1.9,0,3.18,1.14,3.74,3.34l-2,.58c-.32-1.3-.92-2-1.76-2a1.32,1.32,0,0,0-1.34,1.36,2,2,0,0,0,.56,1.34,11.9,11.9,0,0,0,1.76,1.46,11.15,11.15,0,0,1,2,1.8,3.94,3.94,0,0,1,.86,2.44,3.36,3.36,0,0,1-3.66,3.41c-2.28,0-3.62-1.24-4-3.77Z" fill="#fff"/>
        <path d="M51.64,182.29h6v1.9h-4v3.52h2.94v1.9H53.7v4.12h4v1.91h-6Z" fill="#fff"/>
        <path d="M59.32,182.29h6.05v1.9h-4v3.52h2.95v1.9H61.38v4.12h4v1.91H59.32Z" fill="#fff"/>
        <path d="M70,182.29h3.22a3.71,3.71,0,0,1,2.65.8,3.76,3.76,0,0,1,1.2,3,3.54,3.54,0,0,1-1.8,3.46l2,6.07H75.11l-1.77-5.49H72.1v5.49H70Zm2.82,6c.89,0,1.29-.1,1.61-.42a2.84,2.84,0,0,0,0-3.22c-.32-.32-.72-.42-1.61-.42H72.1v4.06Z" fill="#fff"/>
        <path d="M79,182.29h6v1.9H81v3.52H84v1.9H81v4.12h4v1.91H79Z" fill="#fff"/>
        <path d="M93.77,191.41c0,2.88-1.26,4.43-3.66,4.43a3.28,3.28,0,0,1-3-1.49c-.5-.82-.64-1.6-.64-3.58V187c0-2.1.16-2.86.78-3.7a3.37,3.37,0,0,1,2.82-1.24c2.28,0,3.62,1.52,3.62,4.14v.4H91.65v-.28c0-1.52-.54-2.32-1.58-2.32a1.34,1.34,0,0,0-1.2.66,3.57,3.57,0,0,0-.32,1.92v4.44a5.71,5.71,0,0,0,.22,2,1.4,1.4,0,0,0,1.34.87c1.06,0,1.6-.87,1.6-2.61a2.45,2.45,0,0,0,0-.34h2.08Z" fill="#fff"/>
        <path d="M95.57,182.29h2.06v13.35H95.57Z" fill="#fff"/>
        <path d="M99.67,182.29h3.42a3.73,3.73,0,0,1,2.8.86,5.09,5.09,0,0,1,0,6.22,3.73,3.73,0,0,1-2.8.86h-1.36v5.41H99.67Zm3,6c1.66,0,2.18-.5,2.18-2.08s-.52-2.06-2.18-2.06h-.9v4.14Z" fill="#fff"/>
        <path d="M108.59,182.29h6v1.9h-4v3.52h2.94v1.9h-2.94v4.12h4v1.91h-6Z" fill="#fff"/>
      </g>
    </g>
  </g>
</svg>
