<svg xmlns="http://www.w3.org/2000/svg" width="300" height="600" viewBox="0 0 300 600">
  <g>
    <rect width="300" height="600" fill="none"/>
    <g>
      <polygon points="198.04 588.62 201.01 588.62 201.01 589.98 196.55 589.98 196.55 580.34 198.04 580.34 198.04 588.62"/>
      <path d="M207.2,586.92a3.72,3.72,0,0,1-.54,2.28,2.82,2.82,0,0,1-4,.19l-.19-.19a3.73,3.73,0,0,1-.55-2.28v-3.51a3.66,3.66,0,0,1,.55-2.28,2.78,2.78,0,0,1,3.93-.23l.23.23a3.72,3.72,0,0,1,.54,2.28Zm-3.76,0a2.71,2.71,0,0,0,.18,1.32,1.13,1.13,0,0,0,1.57.34,1,1,0,0,0,.34-.34,2.49,2.49,0,0,0,.18-1.32v-3.41a2.46,2.46,0,0,0-.18-1.31,1.13,1.13,0,0,0-1.57-.34,1.37,1.37,0,0,0-.34.34,2.67,2.67,0,0,0-.18,1.31Z"/>
      <path d="M213.74,586.92a3.72,3.72,0,0,1-.54,2.28,2.82,2.82,0,0,1-4,.19l-.19-.19a3.61,3.61,0,0,1-.56-2.28v-3.51a3.61,3.61,0,0,1,.56-2.28,2.78,2.78,0,0,1,3.93-.23l.23.23a3.72,3.72,0,0,1,.54,2.28Zm-3.77,0a2.6,2.6,0,0,0,.19,1.32,1.05,1.05,0,0,0,1,.52,1.12,1.12,0,0,0,.95-.52,2.49,2.49,0,0,0,.18-1.32v-3.41a2.46,2.46,0,0,0-.18-1.31,1.15,1.15,0,0,0-.95-.52,1.05,1.05,0,0,0-1,.52,2.55,2.55,0,0,0-.19,1.31Z"/>
      <polygon points="216.61 584.33 218.77 580.34 220.37 580.34 218.33 583.84 220.66 589.98 219.02 589.98 217.41 585.43 216.61 586.77 216.61 589.98 215.12 589.98 215.12 580.34 216.61 580.34 216.61 584.33"/>
      <polygon points="225.24 589.98 223.75 589.98 223.75 580.34 228.16 580.34 228.16 581.71 225.24 581.71 225.24 584.32 227.41 584.32 227.41 585.69 225.24 585.69 225.24 589.98"/>
      <path d="M234.35,586.92a3.73,3.73,0,0,1-.55,2.28,2.81,2.81,0,0,1-4,.19l-.2-.19a3.67,3.67,0,0,1-.56-2.28v-3.51a3.67,3.67,0,0,1,.56-2.28,2.78,2.78,0,0,1,3.93-.23l.23.23a3.66,3.66,0,0,1,.55,2.28Zm-3.78,0a2.61,2.61,0,0,0,.2,1.32,1.13,1.13,0,0,0,1.57.34,1.22,1.22,0,0,0,.34-.34,2.59,2.59,0,0,0,.18-1.32v-3.41a2.56,2.56,0,0,0-.18-1.31,1.14,1.14,0,0,0-1.58-.34,1.19,1.19,0,0,0-.33.34,2.55,2.55,0,0,0-.2,1.31Z"/>
      <path d="M237.18,590h-1.49v-9.64H238a2.64,2.64,0,0,1,1.91.58,2.69,2.69,0,0,1,.87,2.18,2.58,2.58,0,0,1-1.3,2.5l1.41,4.38h-1.56l-1.27-4h-.9Zm.55-5.33c.63,0,.93-.07,1.13-.31a1.59,1.59,0,0,0,.37-1.14,1.55,1.55,0,0,0-.37-1.13c-.22-.24-.52-.31-1.13-.31h-.55v2.93Z"/>
      <polygon points="247.01 589.98 245.52 589.98 245.52 581.71 243.65 581.71 243.65 580.34 248.88 580.34 248.88 581.71 247.01 581.71 247.01 589.98"/>
      <polygon points="251.42 585.73 251.42 589.98 249.93 589.98 249.93 580.34 251.42 580.34 251.42 584.36 253.54 584.36 253.54 580.34 255.03 580.34 255.03 589.98 253.54 589.98 253.54 585.73 251.42 585.73"/>
      <polygon points="260.86 581.71 257.98 581.71 257.98 584.26 260.11 584.26 260.11 585.64 257.98 585.64 257.98 588.62 260.86 588.62 260.86 589.99 256.49 589.99 256.49 580.34 260.86 580.34 260.86 581.71"/>
      <path d="M267.73,583c-.23-.95-.66-1.43-1.28-1.43a1,1,0,0,0-1,.94v0a1.47,1.47,0,0,0,.41,1,6.12,6.12,0,0,0,1.28,1.05,7.73,7.73,0,0,1,1.43,1.31,2.75,2.75,0,0,1,.61,1.76,2.42,2.42,0,0,1-2.37,2.47h-.26a2.77,2.77,0,0,1-2.92-2.6s0-.08,0-.12l1.44-.42c.18,1.14.69,1.74,1.49,1.74a1,1,0,0,0,1.13-1,.61.61,0,0,0,0-.19c0-.6-.3-1-1.43-1.88a7.63,7.63,0,0,1-1.81-1.54,2.66,2.66,0,0,1-.53-1.61,2.35,2.35,0,0,1,2.32-2.38h.19a2.73,2.73,0,0,1,2.71,2.42Z"/>
      <polygon points="274.63 581.71 271.75 581.71 271.75 584.26 273.88 584.26 273.88 585.64 271.75 585.64 271.75 588.62 274.63 588.62 274.63 589.99 270.26 589.99 270.26 580.34 274.63 580.34 274.63 581.71"/>
      <path d="M277.45,587.89l-.4,2.09h-1.46l1.86-9.64h2l2,9.64H279.9l-.41-2.09Zm1-5.69-.78,4.32h1.58Z"/>
      <polygon points="283.95 588.62 286.92 588.62 286.92 589.98 282.46 589.98 282.46 580.34 283.95 580.34 283.95 588.62"/>
      <rect x="287.91" y="588.43" width="1.4" height="1.55"/>
      <g>
        <path d="M240.84,577.9a24.48,24.48,0,0,1-24.15-20.77l-2.43.24a2.45,2.45,0,0,1-2.59-2.28c0-.05,0-.1,0-.15l-.1-11.32a2.44,2.44,0,0,1,2.27-2.45c.3,0,4.15-.41,6.25-.58a24.4,24.4,0,0,1,41.54,0c2.1.17,5.95.55,6.25.58a2.44,2.44,0,0,1,2.27,2.45l-.1,11.32a2.44,2.44,0,0,1-2.45,2.43h-.15c-.8-.09-1.62-.16-2.43-.24a24.45,24.45,0,0,1-24.15,20.77" fill="#ffbf0f"/>
        <polygon points="229.03 555.64 230.69 555.64 232.01 558.64 233.4 555.64 235.08 555.64 236.06 561.26 234.38 561.26 233.9 558.03 233.88 558.03 232.33 561.26 231.65 561.26 230.17 558.03 230.15 558.03 229.61 561.26 227.94 561.26 229.03 555.64"/>
        <rect x="238.06" y="555.64" width="1.68" height="5.62"/>
        <polygon points="243.82 560.02 245.84 560.02 245.84 561.26 242.13 561.26 242.13 555.64 243.82 555.64 243.82 560.02"/>
        <polygon points="251.42 555.64 253.51 555.64 250.93 558.3 253.74 561.26 251.56 561.26 249.38 558.82 249.36 558.82 249.36 561.26 247.68 561.26 247.68 555.64 249.36 555.64 249.36 557.96 249.38 557.96 251.42 555.64"/>
        <path d="M234,540.38l-.81-1.69h-.38v1.69h-1.11v-4.54h1.79a1.45,1.45,0,0,1,1.55,1.32v.12a1.31,1.31,0,0,1-.72,1.19l1,1.89Zm-.56-3.54h-.63v.92h.63a.46.46,0,0,0,0-.92h0"/>
        <polygon points="236.87 540.34 236.87 535.81 239.96 535.81 239.96 536.8 237.99 536.8 237.99 537.55 239.67 537.55 239.67 538.55 237.99 538.55 237.99 539.35 239.96 539.35 239.96 540.34 236.87 540.34"/>
        <path d="M244.26,540.38l-.21-.68h-1.39l-.24.68h-1.15l1.65-4.54h.86l1.65,4.54Zm-.88-2.87-.41,1.21h.79Z"/>
        <polygon points="246.88 540.34 246.88 535.81 247.99 535.81 247.99 539.35 249.9 539.35 249.9 540.34 246.88 540.34"/>
        <path d="M268.54,543.62a.85.85,0,0,0-.85-.85h0c-2.3-.24-4.64-.46-7-.64a22.83,22.83,0,0,0-39.65,0c-2.39.18-4.73.4-7,.64h0a.85.85,0,0,0-.85.85h0l.1,11.34h0a.85.85,0,0,0,.85.85h0q2-.21,4-.39a22.85,22.85,0,0,0,45.53,0c1.34.12,2.67.25,4,.39h0a.85.85,0,0,0,.85-.85h0Zm-27.7-11A20.84,20.84,0,0,1,258.28,542q-8.47-.57-17.44-.58c-6,0-11.79.2-17.44.58a20.89,20.89,0,0,1,17.44-9.38m-3.73,38.77a7.39,7.39,0,0,0-1,.15,1.09,1.09,0,0,1-.26-.21,2.75,2.75,0,0,1-.19-.28,2.39,2.39,0,0,1,0-.6,1.89,1.89,0,0,1,.14-1,6,6,0,0,1,.27-.63c.1-.14.2-.28.28-.42.09.19.21.12.33.21a1.54,1.54,0,0,1-.11.3c-.06.09,0,.18,0,.27s.52,1.91.52,2a.74.74,0,0,1,0,.21m5.73.13h0c-1.32,0-1.25.43-3,.09a11.8,11.8,0,0,0-2.22-.25,4.77,4.77,0,0,1-.32-1.44c0-.25,0-.58.06-.71a2.57,2.57,0,0,1,.21-.52c.05-.07.1,0,.1,0s0,.2,0,.22.13-.23.15-.29a.65.65,0,0,1,.17-.16c0,.05,0,.24.09.25s.06,0,.07-.08c.06-.25,0-.25.27-.37a2.91,2.91,0,0,0,.43-.43c1.62.72,3-.28,4,.24v.84a2.17,2.17,0,0,0,0,.67,4.43,4.43,0,0,1-.2,1.19c-.05.11-.11.14-.12.19s.12,0,.16.12a.2.2,0,0,1,0,.21.12.12,0,0,0,0,.16m.07,0h0m.82.06a4.24,4.24,0,0,1-.38-.65,3.64,3.64,0,0,1,.07-1.09,1.74,1.74,0,0,0,.18-.33l0-.06h.08v.06a1,1,0,0,1,.1.39,5.62,5.62,0,0,1-.05.92.24.24,0,0,0,0,.23v.15s.12,0,.17.08,0,.22,0,.3h-.1m15-7.31-.15-2.74-1,2.68-.89-2.65-.27,2.86-1.58-2.4.42,2.83-2.15-1.91,1.19,2.6-2.57-1.3,1.82,2.21-2.81-.58,2.37,1.63-2.86.16,2.68,1-2.73.9,2.86.28c-2.75.85-2.25,2.76-8.36,1.95,0-.07-.18-.18-.22-.22a1,1,0,0,0-.18-.27.46.46,0,0,1-.1-.32,4.54,4.54,0,0,1-.07-.82.6.6,0,0,1,.06-.27c0-.09,0-.14.07-.23a.86.86,0,0,0,.06-.39c0-.17.13-.93.13-.93a1,1,0,0,0,.72-.55s.18-.2.37-.49a5.76,5.76,0,0,0,.35-1.21c.05-.07.15-.57.18-.62s.3-.38.45-.61.08-.21.23-.38a.41.41,0,0,1,.44-.05,6.37,6.37,0,0,0,1.07,0c.1,0,.29-.15.34-.15s.14,0,.22,0a.45.45,0,0,0,.25-.18s.07,0,.11-.08a.41.41,0,0,0,.09-.28.39.39,0,0,0-.15-.28,1.11,1.11,0,0,0-.3-.08,4.63,4.63,0,0,1-.42-.32c-.21-.16-.62-.41-.65-.47a1.27,1.27,0,0,0-.18-.27c0-.07,0-.12,0-.17s-.3,0-.31,0a2.75,2.75,0,0,1-.26-.22.59.59,0,0,0-.33-.2c-.08,0-.12.06-.11.17s0,.11,0,.15,0,.12,0,.15a1.2,1.2,0,0,0-.41.2,4.14,4.14,0,0,1-1.85.79,1.36,1.36,0,0,0-.76,0,46.68,46.68,0,0,1-4.87.22h0c-.11,0-.37-.09-.78-.11s-1.06-.09-1.37-.09a1.18,1.18,0,0,0-.9.38,1.29,1.29,0,0,0-.33.5c-.05.18,0,1.62-.05,2.15-.06.33-.22,1.1-.22,1.1s-.26,0-.36.36-.27.39-.34.51a.67.67,0,0,0-.1.28.7.7,0,0,1,.33-.35,1.19,1.19,0,0,0-.3.72.92.92,0,0,1,.33-.4,1.26,1.26,0,0,0-.38.78l.13-.18v.15l.16-.12a1.59,1.59,0,0,0-.28.55,1.25,1.25,0,0,1,.28-.36,2,2,0,0,0-.22.76,1.38,1.38,0,0,1,.43-.65.89.89,0,0,0,.37-.68,5.32,5.32,0,0,1,.26-.66.55.55,0,0,0-.09-.6c.05-.23.1-.56.17-1.18a6.23,6.23,0,0,0,.11-1.43c0-.62.08-.65.08-.65a6.7,6.7,0,0,0,.14,1.34,10.82,10.82,0,0,1-.07,2,2.64,2.64,0,0,1-.31.71.84.84,0,0,0-.11.49c0,.19,0,2-.06,2a.52.52,0,0,0-.1.27c0,.08.1.09.14.14a2.3,2.3,0,0,0,.21.33c-1.09-.24-3.36-1.62-8-2.06a20.87,20.87,0,0,1-7.38-14.2c6.69-.54,13.66-.84,20.81-.84s14.13.3,20.83.84a20.82,20.82,0,0,1-2.9,9"/>
        <path d="M220.22,550.78c0,1.44-.07,1.75-.49,2.28a2.55,2.55,0,0,1-1.92.84,2.4,2.4,0,0,1-1.93-.72c-.41-.53-.48-.8-.48-2.22v-3.79c0-1.43.07-1.72.48-2.26a2.64,2.64,0,0,1,1.93-.85,2.39,2.39,0,0,1,1.92.72c.44.53.49.8.49,2.22v.61l-1.52,0v-1.29c0-.9-.23-1.23-.88-1.21s-.91.36-.91,1.27v5.15c0,.91.24,1.23.88,1.21s.91-.35.91-1.27v-1.7l1.52,0Z" fill="#fff"/>
        <path d="M222.79,551.62l-.29,1.87-1.43.11,1.54-9.9,1.8-.11,1.79,9.68-1.43.08-.36-1.81Zm1-4.52-.13-1-.11-.79-.06.78-.14,1-.38,3.28,1.27-.08Z" fill="#fff"/>
        <polygon points="228.87 551.91 231.3 551.8 231.3 553.02 227.36 553.19 227.36 543.41 228.87 543.34 228.87 551.91" fill="#fff"/>
        <polygon points="234.07 552.96 232.56 552.99 232.56 543.2 234.07 543.16 234.07 552.96" fill="#fff"/>
        <polygon points="236.94 548.43 236.94 552.9 235.43 552.92 235.42 543.13 239.28 543.07 239.28 544.29 236.94 544.32 236.94 547.2 239.08 547.17 239.08 548.4 236.94 548.43" fill="#fff"/>
        <path d="M245.13,549.87c0,1.43-.07,1.75-.49,2.25a2.72,2.72,0,0,1-3.84,0h0c-.42-.53-.49-.81-.49-2.23v-3.78c0-1.43.07-1.71.49-2.24a2.5,2.5,0,0,1,1.92-.79,2.44,2.44,0,0,1,1.92.79c.44.55.49.82.49,2.24Zm-3.3.71c0,.91.23,1.24.88,1.24s.91-.32.91-1.24v-5.12c0-.91-.24-1.25-.89-1.25s-.9.32-.9,1.25Z" fill="#fff"/>
        <path d="M249,543.17c1,0,1.32.12,1.59.47a3.21,3.21,0,0,1,.35,1.85v.72c0,1.33-.23,1.72-1.13,1.83.91.24,1.13.64,1.13,2.06v1.21a4,4,0,0,0,.3,1.75L249.7,553a5.94,5.94,0,0,1-.28-1.91v-.86c0-1.26-.2-1.74-.71-1.75h-.65V553h-1.54v-9.84Zm-1,4.19h.89c.44,0,.52-.14.52-1v-.93c0-.86-.08-1.06-.52-1.07H248Z" fill="#fff"/>
        <polygon points="255.38 553.24 253.44 545.59 253.49 546.22 253.58 547.15 253.61 547.75 253.76 553.17 252.35 553.11 252.35 543.31 253.92 543.38 255.53 549.43 255.67 549.98 255.78 550.52 255.87 550.88 255.84 550.32 255.74 549.1 255.69 548.35 255.57 543.47 257.03 543.55 257.04 553.35 255.38 553.24" fill="#fff"/>
        <polygon points="260.02 553.54 258.51 553.43 258.49 543.66 260.02 543.77 260.02 553.54" fill="#fff"/>
        <path d="M262.93,551.91l-.3,1.85-1.43-.12,1.55-9.65,1.8.16,1.82,10-1.43-.14-.37-1.92Zm1-4.37-.14-1-.1-.81-.06.77-.14,1-.39,3.22,1.28.11Z" fill="#fff"/>
        <path d="M258.05,565.34a3.08,3.08,0,0,0-.68-.07,3.31,3.31,0,0,0-3.33,3.29,3.08,3.08,0,0,0,.16,1,21.34,21.34,0,0,0,3.85-4.2" fill="#fff"/>
        <path d="M266.59,558.1a1,1,0,1,1-1.06,1,1,1,0,0,1,1-1h0m0,1.84a.81.81,0,1,0-.78-.84v0a.78.78,0,0,0,.75.81h0m-.41-1.39h.43c.29,0,.46.09.46.34a.31.31,0,0,1-.28.31h0l.31.5h-.24l-.28-.49h-.14v.51h-.23Zm.23.48h.2c.13,0,.23,0,.23-.16s-.14-.14-.24-.14h-.19Z"/>
      </g>
    </g>
  </g>
</svg>
