<svg xmlns="http://www.w3.org/2000/svg" width="300" height="600" viewBox="0 0 300 600">
  <g>
    <rect width="300" height="600" fill="none"/>
    <g>
      <path d="M35.11,40.16c0,6.05-2.64,9.28-7.69,9.28-2.81,0-5-1.09-6.25-3.11-1.05-1.72-1.35-3.36-1.35-7.52V31c0-4.41.34-6,1.64-7.77a7.08,7.08,0,0,1,5.92-2.61c4.79,0,7.61,3.2,7.61,8.7v.84H30.66v-.59c0-3.19-1.14-4.87-3.32-4.87A2.8,2.8,0,0,0,24.82,26c-.5.93-.67,1.77-.67,4V39.4a11.88,11.88,0,0,0,.46,4.16,2.93,2.93,0,0,0,2.81,1.81c2.23,0,3.37-1.81,3.37-5.46a4.42,4.42,0,0,0-.05-.72h4.37Z" fill="#fff"/>
      <path d="M42.65,21h5.92l5.67,28H49.79l-1.18-6.09h-6L41.51,49H37.27ZM47.9,38.94,45.59,26.38,43.32,38.94Z" fill="#fff"/>
      <path d="M57.22,21h4.33V45h8.61v4H57.22Z" fill="#fff"/>
      <path d="M73,21H77.3V49H73Z" fill="#fff"/>
      <path d="M81.08,21H93.89v4H85.4v7.57h6.3v4H85.4V49H81.08Z" fill="#fff"/>
      <path d="M111.57,40.12c0,3.15-.46,5-1.59,6.63a8.15,8.15,0,0,1-12.1,0c-1.13-1.59-1.6-3.48-1.6-6.63V29.91c0-3.15.47-5,1.6-6.64a8.15,8.15,0,0,1,12.1,0c1.13,1.6,1.59,3.49,1.59,6.64Zm-11-.09c0,2.23.13,3,.55,3.83a3.3,3.3,0,0,0,5.54,0c.46-.84.55-1.56.55-3.83V30c0-2.26-.09-2.94-.55-3.82a3.3,3.3,0,0,0-5.54,0c-.42.84-.55,1.6-.55,3.82Z" fill="#fff"/>
      <path d="M115.12,21h6.77c2.56,0,4.2.51,5.54,1.68A7.91,7.91,0,0,1,130,29c0,3.53-1.26,6-3.78,7.26L130.29,49h-4.54l-3.69-11.51h-2.61V49h-4.33Zm5.93,12.52c1.85,0,2.69-.21,3.36-.88a4.56,4.56,0,0,0,1-3.36,4.59,4.59,0,0,0-1-3.4c-.67-.68-1.51-.89-3.36-.89h-1.6v8.53Z" fill="#fff"/>
      <path d="M133.39,21h4.37l7.05,17.44V21h4.12V49h-3.87L137.5,30.37V49h-4.11Z" fill="#fff"/>
      <path d="M152.7,21H157V49H152.7Z" fill="#fff"/>
      <path d="M165.48,21h5.93l5.67,28h-4.46l-1.17-6.09h-6L164.35,49h-4.24Zm5.25,17.94-2.31-12.56-2.26,12.56Z" fill="#fff"/>
      <path d="M36.37,87.08c-2.35,0-4.33-.88-5.25-2.35a9.74,9.74,0,0,1-3.74.71,7.13,7.13,0,0,1-6-2.69c-1.14-1.59-1.6-3.48-1.6-6.63V65.91c0-3.15.46-5,1.6-6.64a7.06,7.06,0,0,1,6-2.69,7.07,7.07,0,0,1,6.05,2.69c1.13,1.6,1.59,3.49,1.59,6.64V76.12c0,2.64-.29,4.37-1,5.75a2.79,2.79,0,0,0,2.31,1.18ZM24.15,76c0,2.23.12,3,.54,3.83a3.3,3.3,0,0,0,5.55,0c.46-.84.55-1.56.55-3.83V66c0-2.26-.09-2.94-.55-3.82a3.3,3.3,0,0,0-5.55,0c-.42.84-.54,1.6-.54,3.82Z" fill="#fff"/>
      <path d="M53.4,76c0,3.53-.42,5.34-1.6,6.93A7,7,0,0,1,46,85.44a6.91,6.91,0,0,1-5.79-2.52c-1.18-1.59-1.6-3.4-1.6-6.93V57H42.9V76.71c0,3.27.92,4.66,3.1,4.66s3.07-1.39,3.07-4.66V57H53.4Z" fill="#fff"/>
      <path d="M57.15,57H69.84v4H61.48v7.4h6.18v4H61.48V81h8.36v4H57.15Z" fill="#fff"/>
      <path d="M76,76.33c.54,3.32,2,5,4.32,5a3,3,0,0,0,3.19-3.19c0-1.77-.84-2.86-4.15-5.47-3.91-3.1-4-3.23-5.13-4.57a7.6,7.6,0,0,1-1.55-4.67c0-4,3-6.89,7.31-6.89,4,0,6.68,2.4,7.85,7l-4.16,1.22c-.67-2.73-1.93-4.16-3.69-4.16a2.78,2.78,0,0,0-2.82,2.86,4.2,4.2,0,0,0,1.18,2.81c.71.76.71.76,3.69,3.07a22.5,22.5,0,0,1,4.16,3.78A8.21,8.21,0,0,1,88,78.3c0,4.24-3.11,7.14-7.69,7.14-4.79,0-7.6-2.6-8.48-7.89Z" fill="#fff"/>
      <path d="M106.09,76.12c0,3.15-.47,5-1.6,6.63a8.15,8.15,0,0,1-12.1,0c-1.13-1.59-1.59-3.48-1.59-6.63V65.91c0-3.15.46-5,1.59-6.64a8.15,8.15,0,0,1,12.1,0c1.13,1.6,1.6,3.49,1.6,6.64Zm-11-.09c0,2.23.13,3,.55,3.83a3.3,3.3,0,0,0,5.54,0c.47-.84.55-1.56.55-3.83V66c0-2.26-.08-2.94-.55-3.82a3.3,3.3,0,0,0-5.54,0c-.42.84-.55,1.6-.55,3.82Z" fill="#fff"/>
      <path d="M116.5,57h12.81v4h-8.48v7.57h6.3v4h-6.3V85H116.5Z" fill="#fff"/>
      <path d="M132.09,57h6.76c2.57,0,4.2.51,5.55,1.68A7.91,7.91,0,0,1,146.92,65c0,3.53-1.26,6-3.78,7.26L147.25,85h-4.53L139,73.51h-2.6V85h-4.33ZM138,69.52c1.85,0,2.69-.21,3.36-.88a4.52,4.52,0,0,0,1-3.36,4.54,4.54,0,0,0-1-3.4c-.67-.68-1.51-.89-3.36-.89h-1.59v8.53Z" fill="#fff"/>
      <path d="M150.35,57H163v4h-8.36v7.4h6.17v4h-6.17V81H163v4H150.35Z" fill="#fff"/>
      <path d="M169.14,76.33c.55,3.32,2,5,4.33,5a3,3,0,0,0,3.19-3.19c0-1.77-.84-2.86-4.16-5.47-3.9-3.1-4-3.23-5.12-4.57a7.61,7.61,0,0,1-1.56-4.67c0-4,3-6.89,7.31-6.89,4,0,6.68,2.4,7.86,7l-4.16,1.22c-.67-2.73-1.93-4.16-3.7-4.16a2.77,2.77,0,0,0-2.81,2.86,4.23,4.23,0,0,0,1.17,2.81,25.28,25.28,0,0,0,3.7,3.07,23.2,23.2,0,0,1,4.16,3.78,8.27,8.27,0,0,1,1.81,5.12c0,4.24-3.11,7.14-7.69,7.14-4.79,0-7.6-2.6-8.49-7.89Z" fill="#fff"/>
      <path d="M199.26,76.16c0,6-2.64,9.28-7.68,9.28-2.82,0-5.05-1.09-6.26-3.11-1-1.72-1.35-3.36-1.35-7.52V67c0-4.41.34-6,1.64-7.77a7.08,7.08,0,0,1,5.92-2.61c4.79,0,7.61,3.2,7.61,8.7v.84h-4.33v-.59c0-3.19-1.14-4.87-3.32-4.87A2.8,2.8,0,0,0,189,62c-.5.93-.67,1.77-.67,4V75.4a11.88,11.88,0,0,0,.46,4.16,2.94,2.94,0,0,0,2.82,1.81c2.22,0,3.36-1.81,3.36-5.46a4.42,4.42,0,0,0-.05-.72h4.37Z" fill="#fff"/>
      <path d="M217.69,76.12c0,3.15-.46,5-1.6,6.63a8.14,8.14,0,0,1-12.09,0c-1.14-1.59-1.6-3.48-1.6-6.63V65.91c0-3.15.46-5,1.6-6.64a8.14,8.14,0,0,1,12.09,0c1.14,1.6,1.6,3.49,1.6,6.64Zm-11-.09c0,2.23.12,3,.54,3.83a3.3,3.3,0,0,0,5.55,0c.46-.84.54-1.56.54-3.83V66c0-2.26-.08-2.94-.54-3.82a3.3,3.3,0,0,0-5.55,0c-.42.84-.54,1.6-.54,3.82Z" fill="#fff"/>
      <path d="M20.12,93H27.3c2.81,0,4.58.55,5.88,1.81,1.51,1.43,2.23,3.57,2.23,6.55s-.72,5.09-2.23,6.51c-1.3,1.26-3.07,1.81-5.88,1.81H24.44V121H20.12Zm6.21,12.69c3.49,0,4.58-1,4.58-4.37S29.82,97,26.33,97H24.44v8.7Z" fill="#fff"/>
      <path d="M53.19,112c0,3.53-.42,5.34-1.59,6.93a7,7,0,0,1-5.84,2.52,7,7,0,0,1-5.8-2.52c-1.18-1.59-1.6-3.4-1.6-6.93V93h4.33v19.71c0,3.27.93,4.66,3.11,4.66s3.07-1.39,3.07-4.66V93h4.32Z" fill="#fff"/>
      <path d="M61.29,97H55.87V93H71.08v4H65.61v24H61.29Z" fill="#fff"/>
      <path d="M76.74,112.33c.55,3.32,2,5,4.33,5a3,3,0,0,0,3.19-3.19c0-1.77-.84-2.86-4.16-5.47-3.9-3.1-4-3.23-5.12-4.57a7.6,7.6,0,0,1-1.55-4.67c0-4,3-6.89,7.3-6.89,4,0,6.68,2.4,7.86,7l-4.16,1.22c-.67-2.73-1.93-4.16-3.7-4.16a2.77,2.77,0,0,0-2.81,2.86,4.2,4.2,0,0,0,1.18,2.81c.71.76.71.76,3.69,3.07A22.5,22.5,0,0,1,87,109.18a8.21,8.21,0,0,1,1.81,5.12c0,4.24-3.11,7.14-7.69,7.14-4.79,0-7.6-2.6-8.48-7.89Z" fill="#fff"/>
      <path d="M98.21,93h4.32v28H98.21Z" fill="#fff"/>
      <path d="M110.63,97h-5.42V93h15.21v4H115v24h-4.33Z" fill="#fff"/>
      <path d="M144.23,112.12c0,3.15-.46,5-1.6,6.63a8.14,8.14,0,0,1-12.09,0c-1.14-1.59-1.6-3.48-1.6-6.63V101.91c0-3.15.46-5,1.6-6.64a8.14,8.14,0,0,1,12.09,0c1.14,1.6,1.6,3.49,1.6,6.64Zm-11-.09c0,2.23.12,3,.54,3.83a3.3,3.3,0,0,0,5.55,0c.46-.84.54-1.56.54-3.83V102c0-2.26-.08-2.94-.54-3.82a3.3,3.3,0,0,0-5.55,0c-.42.84-.54,1.6-.54,3.82Z" fill="#fff"/>
      <path d="M146.35,93h4.49l4.2,21.3,3.7-21.3h4.41l-5.42,28h-5.37Z" fill="#fff"/>
      <path d="M166,93h12.69v4h-8.36v7.4h6.17v4h-6.17V117h8.36v4H166Z" fill="#fff"/>
      <path d="M181.67,93h6.77c2.56,0,4.2.51,5.54,1.68A7.91,7.91,0,0,1,196.5,101c0,3.53-1.26,6-3.78,7.26L196.84,121H192.3l-3.69-11.51H186V121h-4.33Zm5.93,12.52c1.85,0,2.69-.21,3.36-.88a6,6,0,0,0,0-6.76c-.67-.68-1.51-.89-3.36-.89H186v8.53Z" fill="#fff"/>
      <path d="M23.69,133H18.27v-4h15.2v4H28v24H23.69Z" fill="#fff"/>
      <path d="M36.15,129h4.33v11.68h6.17V129H51v28H46.65V144.67H40.48V157H36.15Z" fill="#fff"/>
      <path d="M54.75,129H67.44v4H59.08v7.4h6.17v4H59.08V153h8.36v4H54.75Z" fill="#fff"/>
      <path d="M80.41,133H75v-4H90.2v4H84.74v24H80.41Z" fill="#fff"/>
      <path d="M107.79,148.12c0,3.15-.46,5-1.6,6.63a8.15,8.15,0,0,1-12.1,0c-1.13-1.59-1.59-3.48-1.59-6.63V137.91c0-3.15.46-5,1.59-6.64a8.15,8.15,0,0,1,12.1,0c1.14,1.6,1.6,3.49,1.6,6.64Zm-11-.09c0,2.23.13,3,.55,3.83a3.3,3.3,0,0,0,5.54,0c.47-.84.55-1.56.55-3.83V138c0-2.26-.08-2.94-.55-3.82a3.3,3.3,0,0,0-5.54,0c-.42.84-.55,1.6-.55,3.82Z" fill="#fff"/>
      <path d="M111.34,129h7.18c2.82,0,4.58.55,5.88,1.81,1.51,1.43,2.23,3.57,2.23,6.55s-.72,5.09-2.23,6.51c-1.3,1.26-3.06,1.81-5.88,1.81h-2.85V157h-4.33Zm6.22,12.69c3.48,0,4.57-1.05,4.57-4.37S121,133,117.56,133h-1.89v8.7Z" fill="#fff"/>
      <path d="M124.77,152.53h4.07V157h-4.07Z" fill="#fff"/>
    </g>
  </g>
</svg>
