<svg xmlns="http://www.w3.org/2000/svg" width="300" height="250" viewBox="0 0 300 250">
  <g>
    <rect width="300" height="250" fill="none"/>
    <g>
      <rect x="9" y="131" width="93.58" height="24.8" fill="#256d68"/>
      <g>
        <path d="M28.41,145.79c.21,1.27.77,1.92,1.65,1.92a1.16,1.16,0,0,0,1.22-1.21c0-.67-.32-1.09-1.59-2.08a9.72,9.72,0,0,1-2-1.74,2.93,2.93,0,0,1-.59-1.78,2.6,2.6,0,0,1,2.78-2.62c1.52,0,2.54.91,3,2.67l-1.58.46c-.26-1-.74-1.58-1.41-1.58a1.05,1.05,0,0,0-1.07,1.09,1.58,1.58,0,0,0,.45,1.07,9,9,0,0,0,1.41,1.17,8.55,8.55,0,0,1,1.58,1.44,3.13,3.13,0,0,1,.69,2,2.7,2.7,0,0,1-2.93,2.72c-1.82,0-2.89-1-3.23-3Z" fill="#fff"/>
        <path d="M34.33,138.44h4.83V140H36v2.81h2.35v1.52H36v3.3h3.18v1.52H34.33Z" fill="#fff"/>
        <path d="M40.49,138.44h4.83V140H42.14v2.81h2.35v1.52H42.14v3.3h3.18v1.52H40.49Z" fill="#fff"/>
        <path d="M49.07,138.44h2.57a2.93,2.93,0,0,1,2.11.64,3,3,0,0,1,1,2.41,2.83,2.83,0,0,1-1.44,2.77l1.57,4.85H53.11l-1.4-4.39h-1v4.39H49.07Zm2.25,4.77c.71,0,1-.09,1.28-.34a1.74,1.74,0,0,0,.4-1.28,1.78,1.78,0,0,0-.4-1.3c-.25-.25-.57-.33-1.28-.33h-.61v3.25Z" fill="#fff"/>
        <path d="M56.23,138.44h4.83V140H57.88v2.81h2.35v1.52H57.88v3.3h3.18v1.52H56.23Z" fill="#fff"/>
        <path d="M68.08,145.73c0,2.3-1,3.54-2.93,3.54a2.64,2.64,0,0,1-2.38-1.19,4.92,4.92,0,0,1-.51-2.86v-3c0-1.68.13-2.29.62-3a2.7,2.7,0,0,1,2.26-1c1.82,0,2.89,1.22,2.89,3.31v.32H66.39v-.22c0-1.22-.44-1.86-1.27-1.86a1.07,1.07,0,0,0-1,.53,2.87,2.87,0,0,0-.25,1.53v3.55a4.88,4.88,0,0,0,.17,1.59,1.12,1.12,0,0,0,1.07.68c.85,0,1.28-.68,1.28-2.07,0,0,0-.16,0-.28h1.66Z" fill="#fff"/>
        <path d="M69.54,138.44h1.65v10.67H69.54Z" fill="#fff"/>
        <path d="M72.84,138.44h2.74a3,3,0,0,1,2.23.69,4.06,4.06,0,0,1,0,5,3,3,0,0,1-2.23.69H74.49v4.32H72.84Zm2.37,4.83c1.33,0,1.74-.4,1.74-1.66S76.54,140,75.21,140h-.72v3.31Z" fill="#fff"/>
        <path d="M80,138.44h4.83V140H81.64v2.81H84v1.52H81.64v3.3h3.19v1.52H80Z" fill="#fff"/>
      </g>
    </g>
  </g>
</svg>
