<svg xmlns="http://www.w3.org/2000/svg" width="300" height="250" viewBox="0 0 300 250">
  <g>
    <rect width="300" height="250" fill="none"/>
    <g>
      <polygon points="11.36 234.59 14.08 234.59 14.08 235.84 10 235.84 10 227.01 11.36 227.01 11.36 234.59"/>
      <path d="M19.75,233a3.38,3.38,0,0,1-.5,2.08,2.57,2.57,0,0,1-3.63.18l-.18-.18a3.45,3.45,0,0,1-.5-2.08v-3.22a3.38,3.38,0,0,1,.5-2.08,2.55,2.55,0,0,1,3.6-.21,2.08,2.08,0,0,1,.21.21,3.31,3.31,0,0,1,.5,2.08Zm-3.44,0a2.34,2.34,0,0,0,.16,1.2,1,1,0,0,0,1.44.31.92.92,0,0,0,.31-.31,2.35,2.35,0,0,0,.17-1.2v-3.13a2.31,2.31,0,0,0-.17-1.19,1,1,0,0,0-1.44-.31,1,1,0,0,0-.31.31,2.43,2.43,0,0,0-.16,1.19Z"/>
      <path d="M25.74,233a3.45,3.45,0,0,1-.5,2.08,2.59,2.59,0,0,1-3.64.18l-.17-.18a3.26,3.26,0,0,1-.51-2.08v-3.22a3.26,3.26,0,0,1,.51-2.08,2.55,2.55,0,0,1,3.6-.21l.21.21a3.45,3.45,0,0,1,.5,2.08Zm-3.46,0a2.25,2.25,0,0,0,.18,1.2,1,1,0,0,0,.87.48,1,1,0,0,0,.88-.48,2.24,2.24,0,0,0,.16-1.2v-3.13a2.21,2.21,0,0,0-.16-1.19,1,1,0,0,0-.88-.48,1,1,0,0,0-.87.48,2.22,2.22,0,0,0-.18,1.19Z"/>
      <polygon points="28.36 230.66 30.34 227.01 31.8 227.01 29.93 230.22 32.06 235.84 30.56 235.84 29.09 231.67 28.36 232.9 28.36 235.84 27 235.84 27 227.01 28.36 227.01 28.36 230.66"/>
      <polygon points="36.26 235.84 34.89 235.84 34.89 227.01 38.93 227.01 38.93 228.27 36.26 228.27 36.26 230.65 38.24 230.65 38.24 231.91 36.26 231.91 36.26 235.84"/>
      <path d="M44.59,233a3.38,3.38,0,0,1-.5,2.08,2.57,2.57,0,0,1-3.63.18l-.18-.18a3.39,3.39,0,0,1-.51-2.08v-3.22a3.39,3.39,0,0,1,.51-2.08,2.55,2.55,0,0,1,3.6-.21,2.08,2.08,0,0,1,.21.21,3.31,3.31,0,0,1,.5,2.08Zm-3.45,0a2.35,2.35,0,0,0,.17,1.2,1,1,0,0,0,1.44.31.92.92,0,0,0,.31-.31,2.25,2.25,0,0,0,.17-1.2v-3.13a2.21,2.21,0,0,0-.17-1.19,1,1,0,0,0-1.44-.31,1,1,0,0,0-.31.31,2.31,2.31,0,0,0-.17,1.19Z"/>
      <path d="M47.18,235.84H45.82V227H48a2.5,2.5,0,0,1,1.75.53,2.44,2.44,0,0,1,.79,2,2.34,2.34,0,0,1-1.18,2.29l1.29,4H49.17L48,232.21h-.83Zm.5-4.88c.59,0,.86-.07,1-.29a1.4,1.4,0,0,0,.34-1,1.43,1.43,0,0,0-.34-1c-.2-.22-.47-.28-1-.28h-.5V231Z"/>
      <polygon points="56.18 235.84 54.81 235.84 54.81 228.27 53.11 228.27 53.11 227.01 57.89 227.01 57.89 228.27 56.18 228.27 56.18 235.84"/>
      <polygon points="60.21 231.94 60.21 235.84 58.85 235.84 58.85 227.01 60.21 227.01 60.21 230.69 62.16 230.69 62.16 227.01 63.52 227.01 63.52 235.84 62.16 235.84 62.16 231.94 60.21 231.94"/>
      <polygon points="68.85 228.27 66.22 228.27 66.22 230.6 68.17 230.6 68.17 231.86 66.22 231.86 66.22 234.59 68.85 234.59 68.85 235.85 64.86 235.85 64.86 227.01 68.85 227.01 68.85 228.27"/>
      <path d="M75.14,229.47c-.21-.88-.61-1.31-1.17-1.31a.86.86,0,0,0-.88.86v0a1.37,1.37,0,0,0,.37.9,5.6,5.6,0,0,0,1.17,1,7.85,7.85,0,0,1,1.31,1.2,2.62,2.62,0,0,1,.56,1.61A2.22,2.22,0,0,1,74.32,236h-.23a2.52,2.52,0,0,1-2.67-2.38.37.37,0,0,1,0-.11l1.31-.38c.17,1,.64,1.59,1.37,1.59a1,1,0,0,0,1-.86v-.18c0-.55-.28-.92-1.31-1.72a7,7,0,0,1-1.66-1.41,2.43,2.43,0,0,1-.49-1.47,2.16,2.16,0,0,1,2.13-2.18H74a2.49,2.49,0,0,1,2.48,2.21Z"/>
      <polygon points="81.45 228.27 78.82 228.27 78.82 230.6 80.77 230.6 80.77 231.86 78.82 231.86 78.82 234.59 81.45 234.59 81.45 235.85 77.46 235.85 77.46 227.01 81.45 227.01 81.45 228.27"/>
      <path d="M84,233.92l-.37,1.92H82.34L84,227H85.9l1.79,8.83H86.28l-.37-1.92Zm.92-5.2-.72,3.95h1.45Z"/>
      <polygon points="89.99 234.59 92.7 234.59 92.7 235.84 88.63 235.84 88.63 227.01 89.99 227.01 89.99 234.59"/>
      <rect x="93.61" y="234.42" width="1.28" height="1.42"/>
      <g>
        <path d="M50.54,224.78a22.41,22.41,0,0,1-22.11-19l-2.22.22a2.23,2.23,0,0,1-2.37-2.09.57.57,0,0,1,0-.13l-.09-10.37a2.22,2.22,0,0,1,2.08-2.23c.27,0,3.79-.38,5.71-.54a22.35,22.35,0,0,1,38,0c1.92.16,5.44.51,5.72.54a2.23,2.23,0,0,1,2.08,2.23l-.1,10.37A2.22,2.22,0,0,1,75,206h-.13l-2.23-.22a22.38,22.38,0,0,1-22.1,19" fill="#ffbf0f"/>
        <polygon points="39.73 204.41 41.25 204.41 42.45 207.16 43.73 204.41 45.26 204.41 46.16 209.56 44.62 209.56 44.19 206.59 44.17 206.59 42.74 209.56 42.13 209.56 40.77 206.59 40.75 206.59 40.26 209.56 38.73 209.56 39.73 204.41"/>
        <rect x="47.99" y="204.41" width="1.54" height="5.15"/>
        <polygon points="53.26 208.42 55.11 208.42 55.11 209.56 51.72 209.56 51.72 204.41 53.26 204.41 53.26 208.42"/>
        <polygon points="60.21 204.41 62.13 204.41 59.77 206.84 62.34 209.56 60.34 209.56 58.35 207.32 58.33 207.32 58.33 209.56 56.79 209.56 56.79 204.41 58.33 204.41 58.33 206.53 58.35 206.53 60.21 204.41"/>
        <path d="M44.3,190.44l-.74-1.54h-.34v1.54h-1v-4.15h1.64a1.31,1.31,0,0,1,1.41,1.2v.11a1.19,1.19,0,0,1-.65,1.09l.9,1.73Zm-.51-3.24h-.57V188h.57a.42.42,0,0,0,.42-.42.42.42,0,0,0-.42-.42h0"/>
        <polygon points="46.9 190.41 46.9 186.26 49.72 186.26 49.72 187.16 47.92 187.16 47.92 187.86 49.46 187.86 49.46 188.77 47.92 188.77 47.92 189.5 49.72 189.5 49.72 190.41 46.9 190.41"/>
        <path d="M53.66,190.44l-.19-.62H52.2l-.22.62h-1l1.51-4.15h.78l1.51,4.15Zm-.8-2.62-.38,1.11h.72Z"/>
        <polygon points="56.06 190.41 56.06 186.26 57.08 186.26 57.08 189.5 58.82 189.5 58.82 190.41 56.06 190.41"/>
        <path d="M75.88,193.41a.77.77,0,0,0-.78-.78h0c-2.1-.22-4.24-.42-6.42-.58a20.89,20.89,0,0,0-36.29,0c-2.18.16-4.33.36-6.43.58h0a.78.78,0,0,0-.78.78h0l.09,10.38h0a.78.78,0,0,0,.78.78h0q1.82-.19,3.66-.36a20.91,20.91,0,0,0,41.66,0c1.22.11,2.44.23,3.64.36h0a.78.78,0,0,0,.78-.78h0ZM50.54,183.3a19.1,19.1,0,0,1,16,8.58q-7.76-.52-16-.53c-5.48,0-10.78.18-16,.53a19.09,19.09,0,0,1,16-8.58m-3.42,35.48a5.2,5.2,0,0,0-.88.14,1.16,1.16,0,0,1-.24-.2,2.2,2.2,0,0,1-.17-.25,2.09,2.09,0,0,1,0-.56,1.77,1.77,0,0,1,.13-.88,6,6,0,0,1,.25-.58,3.11,3.11,0,0,0,.25-.38c.09.17.2.11.31.19a2.31,2.31,0,0,1-.1.28c-.06.08,0,.16,0,.25s.48,1.74.48,1.79a.67.67,0,0,1,0,.2m5.24.12h0c-1.21,0-1.15.39-2.73.08a10.52,10.52,0,0,0-2-.23,4.6,4.6,0,0,1-.29-1.31c0-.23,0-.54,0-.66a2.76,2.76,0,0,1,.2-.47c0-.07.08-.05.08,0s0,.18.05.19.12-.2.14-.26a.67.67,0,0,1,.15-.14s0,.21.09.22.05,0,.06-.07c.06-.23,0-.23.25-.34a2.45,2.45,0,0,0,.4-.39c1.48.66,2.73-.25,3.67.22v.76a2.56,2.56,0,0,0,0,.62,4,4,0,0,1-.18,1.09c0,.1-.1.13-.11.18s.11,0,.15.1a.23.23,0,0,1,0,.2.1.1,0,0,0,0,.14m.06,0h0m.75,0a3.12,3.12,0,0,1-.34-.59,3.28,3.28,0,0,1,.06-1,2.19,2.19,0,0,0,.16-.3l0-.06h.07V217a.7.7,0,0,1,.09.35,4.84,4.84,0,0,1,0,.85.23.23,0,0,0,0,.2v.14s.11,0,.15.07,0,.21,0,.28h-.09M67,212.2l-.14-2.51-.92,2.45-.81-2.43-.26,2.63-1.44-2.2.39,2.59-2-1.75,1.08,2.38-2.34-1.19,1.66,2-2.57-.53,2.17,1.49-2.62.15,2.45.92-2.5.82,2.63.25c-2.53.78-2.07,2.53-7.65,1.79,0-.07-.17-.16-.21-.2a1.12,1.12,0,0,0-.16-.25.43.43,0,0,1-.1-.29,4.74,4.74,0,0,1-.06-.75.51.51,0,0,1,0-.25c0-.08,0-.13.07-.21a.72.72,0,0,0,0-.36c0-.15.13-.85.13-.85a.88.88,0,0,0,.65-.5s.17-.18.34-.45a5.41,5.41,0,0,0,.32-1.11c0-.06.14-.52.16-.57s.28-.34.42-.55.07-.19.2-.35a.38.38,0,0,1,.41,0,8,8,0,0,0,1,0c.09,0,.27-.14.31-.14s.13,0,.21,0a.4.4,0,0,0,.22-.16c0-.05.06-.05.1-.08a.38.38,0,0,0,.09-.25.35.35,0,0,0-.14-.25.9.9,0,0,0-.28-.08,2.79,2.79,0,0,1-.38-.3c-.19-.14-.57-.37-.6-.42a1,1,0,0,0-.16-.25c0-.07,0-.11,0-.16s-.28,0-.28,0a1.57,1.57,0,0,1-.25-.2.47.47,0,0,0-.29-.18c-.08,0-.12.06-.11.15s0,.11,0,.15a.08.08,0,0,1,0,.13,1.27,1.27,0,0,0-.37.18,3.77,3.77,0,0,1-1.69.73,1.26,1.26,0,0,0-.7,0,44.23,44.23,0,0,1-4.46.19h0c-.1,0-.33-.07-.71-.09s-1-.08-1.26-.08a1.06,1.06,0,0,0-.82.34,1.26,1.26,0,0,0-.3.46c0,.16,0,1.48,0,2-.05.29-.2,1-.2,1s-.24,0-.33.34-.24.35-.31.46a.62.62,0,0,0-.09.26.67.67,0,0,1,.3-.32,1.05,1.05,0,0,0-.27.65.81.81,0,0,1,.3-.36,1.15,1.15,0,0,0-.35.72l.12-.17v.13l.15-.11a1.37,1.37,0,0,0-.26.51,1.06,1.06,0,0,1,.26-.33,1.89,1.89,0,0,0-.2.69,1.18,1.18,0,0,1,.39-.59.8.8,0,0,0,.34-.62,3.51,3.51,0,0,1,.24-.61.53.53,0,0,0-.08-.55c0-.2.09-.51.15-1.07a5.88,5.88,0,0,0,.1-1.32c0-.56.07-.58.07-.58a5.57,5.57,0,0,0,.14,1.22,10.64,10.64,0,0,1-.07,1.87,2.23,2.23,0,0,1-.29.65.9.9,0,0,0-.1.45,18.46,18.46,0,0,1-.06,1.88.43.43,0,0,0-.08.24c0,.08.09.09.12.13a3.21,3.21,0,0,0,.19.31A26.49,26.49,0,0,0,38.31,217a19.07,19.07,0,0,1-6.75-13c6.12-.49,12.5-.76,19.05-.77s12.93.28,19.06.77A19.15,19.15,0,0,1,67,212.24"/>
        <path d="M31.66,200c0,1.31-.06,1.59-.45,2.07a2.33,2.33,0,0,1-1.75.78,2.21,2.21,0,0,1-1.77-.66c-.38-.48-.44-.73-.44-2v-3.47c0-1.31.06-1.58.44-2.07a2.48,2.48,0,0,1,1.77-.78,2.21,2.21,0,0,1,1.75.66c.4.49.45.73.45,2v.56l-1.39,0v-1.18c0-.82-.21-1.13-.8-1.11s-.83.33-.83,1.16v4.71c0,.83.21,1.13.8,1.12s.83-.33.83-1.17v-1.56l1.39,0Z" fill="#fff"/>
        <path d="M34,200.73l-.26,1.71-1.31.1,1.41-9.06,1.64-.1,1.65,8.86-1.31.07-.33-1.65Zm.89-4.13-.12-.88-.09-.73-.06.72-.13.91-.35,3,1.17-.07Z" fill="#fff"/>
        <polygon points="39.58 201 41.8 200.9 41.8 202.01 38.2 202.17 38.2 193.22 39.58 193.16 39.58 201" fill="#fff"/>
        <polygon points="44.34 201.95 42.95 201.99 42.95 193.03 44.34 192.99 44.34 201.95" fill="#fff"/>
        <polygon points="46.97 197.81 46.97 201.9 45.58 201.92 45.58 192.97 49.11 192.91 49.11 194.02 46.97 194.05 46.97 196.69 48.92 196.66 48.92 197.78 46.97 197.81" fill="#fff"/>
        <path d="M54.46,199.13c0,1.31-.06,1.6-.45,2.06a2.48,2.48,0,0,1-3.51,0h0c-.39-.49-.45-.75-.45-2v-3.46c0-1.32.06-1.57.45-2.06a2.3,2.3,0,0,1,1.75-.72,2.27,2.27,0,0,1,1.76.72c.4.52.45.76.45,2.06Zm-3,.65c0,.83.21,1.14.8,1.14s.83-.3.83-1.14v-4.69c0-.83-.21-1.14-.8-1.14s-.83.29-.83,1.14Z" fill="#fff"/>
        <path d="M58,193c.9,0,1.21.1,1.45.43a2.93,2.93,0,0,1,.33,1.69v.66c0,1.22-.22,1.57-1,1.68.84.21,1,.58,1,1.88v1.11a3.65,3.65,0,0,0,.27,1.6L58.64,202a5.19,5.19,0,0,1-.25-1.75v-.78c0-1.16-.18-1.59-.66-1.6h-.59V202h-1.4v-9Zm-.91,3.83h.82c.4,0,.48-.12.48-.91v-.85c0-.79-.08-1-.48-1h-.82Z" fill="#fff"/>
        <polygon points="63.84 202.22 62.07 195.21 62.11 195.78 62.19 196.64 62.22 197.19 62.36 202.15 61.07 202.09 61.07 193.12 62.5 193.19 63.98 198.73 64.11 199.23 64.21 199.72 64.29 200.05 64.26 199.54 64.17 198.43 64.12 197.74 64.01 193.27 65.35 193.35 65.36 202.31 63.84 202.22" fill="#fff"/>
        <polygon points="68.09 202.49 66.7 202.39 66.69 193.45 68.09 193.55 68.09 202.49" fill="#fff"/>
        <path d="M70.75,201l-.27,1.69-1.31-.11,1.42-8.83,1.64.15L73.9,203l-1.31-.13-.34-1.76Zm.89-4-.12-.9-.09-.74-.06.7-.13.9-.35,2.95,1.17.1Z" fill="#fff"/>
        <path d="M66.28,213.29a2.56,2.56,0,0,0-.62-.07,3,3,0,0,0-3,3,2.81,2.81,0,0,0,.14.92,19.16,19.16,0,0,0,3.52-3.84" fill="#fff"/>
        <path d="M74.1,206.66a.93.93,0,0,1,.91,1,.94.94,0,0,1-1.88,0,.93.93,0,0,1,.93-.94h0m0,1.68a.73.73,0,0,0,.76-.71.74.74,0,0,0-.71-.77.75.75,0,0,0-.77.72v0a.71.71,0,0,0,.69.74h0m-.38-1.27h.39c.27,0,.42.09.42.32a.27.27,0,0,1-.25.28h0l.28.46h-.21l-.26-.46h-.13v.47h-.21Zm.21.44h.18c.12,0,.21,0,.21-.14s-.12-.13-.21-.13h-.18Z"/>
      </g>
    </g>
  </g>
</svg>
