<svg xmlns="http://www.w3.org/2000/svg" width="300" height="250" viewBox="0 0 300 250">
  <g>
    <rect width="300" height="250" fill="none"/>
    <g>
      <path d="M21.39,29c0,4.52-2,6.93-5.74,6.93A5.16,5.16,0,0,1,11,33.57c-.78-1.28-1-2.51-1-5.61V22.1c0-3.29.25-4.48,1.22-5.8a5.29,5.29,0,0,1,4.42-1.94c3.57,0,5.67,2.38,5.67,6.49v.62H18.07V21c0-2.39-.85-3.64-2.48-3.64a2.12,2.12,0,0,0-1.88,1,5.58,5.58,0,0,0-.5,3v7a9,9,0,0,0,.34,3.1,2.19,2.19,0,0,0,2.1,1.35c1.66,0,2.51-1.35,2.51-4.07a4.07,4.07,0,0,0,0-.54h3.26Z" fill="#fff"/>
      <path d="M27.28,14.67H31.7l4.23,20.91H32.61L31.73,31H27.28l-.84,4.55H23.27ZM31.2,28.06l-1.72-9.38-1.69,9.38Z" fill="#fff"/>
      <path d="M38.16,14.67h3.23V32.6h6.42v3H38.16Z" fill="#fff"/>
      <path d="M49.82,14.67h3.23V35.58H49.82Z" fill="#fff"/>
      <path d="M56.25,14.67h9.56v3H59.48v5.64h4.7v3h-4.7v9.31H56.25Z" fill="#fff"/>
      <path d="M79.16,28.93c0,2.35-.34,3.76-1.19,5a6.1,6.1,0,0,1-9,0c-.84-1.2-1.19-2.61-1.19-5V21.32c0-2.35.35-3.76,1.19-4.95a5.27,5.27,0,0,1,4.52-2,5.25,5.25,0,0,1,4.51,2c.85,1.19,1.19,2.6,1.19,4.95ZM71,28.87a5.77,5.77,0,0,0,.41,2.85,2.46,2.46,0,0,0,4.14,0c.34-.62.4-1.16.4-2.85V21.38a5.49,5.49,0,0,0-.4-2.85,2.46,2.46,0,0,0-4.14,0A5.77,5.77,0,0,0,71,21.38Z" fill="#fff"/>
      <path d="M82.14,14.67h5a5.8,5.8,0,0,1,4.14,1.26,5.89,5.89,0,0,1,1.88,4.73c0,2.63-.94,4.45-2.82,5.42l3.07,9.5H90.07L87.31,27H85.37v8.59H82.14ZM86.56,24c1.38,0,2-.15,2.51-.66a3.38,3.38,0,0,0,.78-2.5,3.44,3.44,0,0,0-.78-2.54c-.5-.5-1.13-.66-2.51-.66H85.37V24Z" fill="#fff"/>
      <path d="M95.9,14.67h3.26l5.27,13v-13h3.07V35.58h-2.88L99,21.66V35.58H95.9Z" fill="#fff"/>
      <path d="M110.67,14.67h3.23V35.58h-3.23Z" fill="#fff"/>
      <path d="M120.35,14.67h4.42L129,35.58h-3.33L124.81,31h-4.46l-.84,4.55h-3.17Zm3.92,13.39-1.72-9.38-1.69,9.38Z" fill="#fff"/>
      <path d="M22.33,64a4.5,4.5,0,0,1-3.92-1.75,7.35,7.35,0,0,1-2.79.53,5.35,5.35,0,0,1-4.45-2c-.85-1.2-1.19-2.61-1.19-5V48.19c0-2.35.34-3.76,1.19-4.95a5.25,5.25,0,0,1,4.51-2,5.26,5.26,0,0,1,4.52,2c.84,1.19,1.19,2.6,1.19,4.95V55.8a8.69,8.69,0,0,1-.79,4.3,2.09,2.09,0,0,0,1.73.87Zm-9.12-8.24a5.65,5.65,0,0,0,.41,2.85,2.3,2.3,0,0,0,2.06,1.13,2.3,2.3,0,0,0,2.07-1.13c.35-.62.41-1.16.41-2.85V48.25c0-1.69-.06-2.19-.41-2.85a2.3,2.3,0,0,0-2.07-1.13,2.3,2.3,0,0,0-2.06,1.13,5.65,5.65,0,0,0-.41,2.85Z" fill="#fff"/>
      <path d="M35.43,55.71c0,2.63-.31,4-1.19,5.17a5.24,5.24,0,0,1-4.35,1.88,5.19,5.19,0,0,1-4.33-1.88c-.88-1.19-1.19-2.54-1.19-5.17V41.54H27.6v14.7c0,2.45.69,3.48,2.32,3.48s2.28-1,2.28-3.48V41.54h3.23Z" fill="#fff"/>
      <path d="M38.6,41.54h9.47v3H41.83V50h4.61v3H41.83v6.46h6.24v3H38.6Z" fill="#fff"/>
      <path d="M52.74,56c.41,2.48,1.5,3.76,3.23,3.76a2.27,2.27,0,0,0,2.38-2.38c0-1.32-.63-2.13-3.1-4.08-2.92-2.31-3-2.41-3.83-3.41a5.69,5.69,0,0,1-1.16-3.48c0-3,2.26-5.14,5.46-5.14,3,0,5,1.79,5.86,5.23l-3.11.91c-.5-2-1.44-3.1-2.75-3.1a2.06,2.06,0,0,0-2.1,2.13,3.14,3.14,0,0,0,.87,2.1,20.4,20.4,0,0,0,2.76,2.29,16.81,16.81,0,0,1,3.1,2.82,6.13,6.13,0,0,1,1.35,3.82c0,3.17-2.32,5.33-5.73,5.33-3.58,0-5.68-1.94-6.33-5.89Z" fill="#fff"/>
      <path d="M75.46,55.8c0,2.35-.34,3.76-1.19,5a6.09,6.09,0,0,1-9,0c-.85-1.2-1.19-2.61-1.19-5V48.19c0-2.35.34-3.76,1.19-4.95a5.24,5.24,0,0,1,4.51-2,5.24,5.24,0,0,1,4.51,2c.85,1.19,1.19,2.6,1.19,4.95Zm-8.18-.06a5.77,5.77,0,0,0,.41,2.85,2.46,2.46,0,0,0,4.14,0c.34-.62.41-1.16.41-2.85V48.25a5.46,5.46,0,0,0-.41-2.85,2.46,2.46,0,0,0-4.14,0,5.77,5.77,0,0,0-.41,2.85Z" fill="#fff"/>
      <path d="M83.24,41.54H92.8v3H86.47v5.64h4.7v3h-4.7v9.31H83.24Z" fill="#fff"/>
      <path d="M94.75,41.54h5a5.8,5.8,0,0,1,4.14,1.26,5.89,5.89,0,0,1,1.88,4.73c0,2.63-.94,4.45-2.82,5.42l3.07,9.5h-3.39l-2.75-8.59H98v8.59H94.75Zm4.41,9.34c1.38,0,2-.15,2.51-.66a3.38,3.38,0,0,0,.79-2.5,3.44,3.44,0,0,0-.79-2.54c-.5-.5-1.13-.66-2.51-.66H98v6.36Z" fill="#fff"/>
      <path d="M108.51,41.54H118v3h-6.23V50h4.6v3h-4.6v6.46H118v3h-9.46Z" fill="#fff"/>
      <path d="M122.64,56c.41,2.48,1.51,3.76,3.23,3.76a2.27,2.27,0,0,0,2.38-2.38c0-1.32-.62-2.13-3.1-4.08-2.91-2.31-3-2.41-3.82-3.41a5.69,5.69,0,0,1-1.16-3.48c0-3,2.25-5.14,5.45-5.14,3,0,5,1.79,5.86,5.23l-3.1.91c-.5-2-1.44-3.1-2.76-3.1a2.07,2.07,0,0,0-2.1,2.13,3.11,3.11,0,0,0,.88,2.1,18.93,18.93,0,0,0,2.76,2.29,17.53,17.53,0,0,1,3.1,2.82,6.13,6.13,0,0,1,1.35,3.82c0,3.17-2.32,5.33-5.74,5.33-3.57,0-5.67-1.94-6.33-5.89Z" fill="#fff"/>
      <path d="M145.37,55.83c0,4.52-2,6.93-5.74,6.93A5.16,5.16,0,0,1,135,60.44c-.78-1.28-1-2.51-1-5.61V49c0-3.29.25-4.48,1.22-5.8a5.29,5.29,0,0,1,4.42-1.94c3.58,0,5.68,2.38,5.68,6.49v.62h-3.23v-.43c0-2.39-.85-3.64-2.48-3.64a2.12,2.12,0,0,0-1.88,1,5.58,5.58,0,0,0-.5,3v7a9,9,0,0,0,.34,3.1,2.19,2.19,0,0,0,2.1,1.35c1.66,0,2.51-1.35,2.51-4.07a4.07,4.07,0,0,0,0-.54h3.26Z" fill="#fff"/>
      <path d="M159.38,55.8c0,2.35-.34,3.76-1.19,5a6.1,6.1,0,0,1-9,0c-.84-1.2-1.19-2.61-1.19-5V48.19c0-2.35.35-3.76,1.19-4.95a6.08,6.08,0,0,1,9,0c.85,1.19,1.19,2.6,1.19,4.95Zm-8.18-.06a5.77,5.77,0,0,0,.41,2.85,2.46,2.46,0,0,0,4.14,0c.34-.62.4-1.16.4-2.85V48.25a5.49,5.49,0,0,0-.4-2.85,2.46,2.46,0,0,0-4.14,0,5.77,5.77,0,0,0-.41,2.85Z" fill="#fff"/>
      <path d="M10.2,68.41h5.36c2.1,0,3.42.41,4.39,1.35,1.13,1.07,1.66,2.67,1.66,4.89s-.53,3.79-1.66,4.86c-1,.94-2.29,1.35-4.39,1.35H13.43v8.46H10.2Zm4.64,9.47c2.6,0,3.41-.78,3.41-3.26s-.81-3.23-3.41-3.23H13.43v6.49Z" fill="#fff"/>
      <path d="M35.15,82.58c0,2.63-.31,4-1.19,5.17a5.26,5.26,0,0,1-4.36,1.88,5.18,5.18,0,0,1-4.32-1.88c-.88-1.19-1.19-2.54-1.19-5.17V68.41h3.22v14.7c0,2.45.69,3.48,2.32,3.48s2.29-1,2.29-3.48V68.41h3.23Z" fill="#fff"/>
      <path d="M41,71.39h-4v-3H48.29v3H44.21V89.32H41Z" fill="#fff"/>
      <path d="M52.68,82.83c.4,2.48,1.5,3.76,3.22,3.76a2.28,2.28,0,0,0,2.39-2.38c0-1.32-.63-2.13-3.11-4.07-2.91-2.32-3-2.42-3.82-3.42a5.67,5.67,0,0,1-1.16-3.48c0-3,2.26-5.14,5.45-5.14,3,0,5,1.79,5.86,5.23l-3.1.91c-.5-2-1.44-3.1-2.76-3.1a2.07,2.07,0,0,0-2.1,2.13,3.15,3.15,0,0,0,.88,2.1,17.54,17.54,0,0,0,2.76,2.29,17.53,17.53,0,0,1,3.1,2.82,6.13,6.13,0,0,1,1.35,3.82c0,3.17-2.32,5.33-5.74,5.33s-5.67-1.94-6.33-5.89Z" fill="#fff"/>
      <path d="M68.7,68.41h3.22V89.32H68.7Z" fill="#fff"/>
      <path d="M78.22,71.39h-4v-3H85.53v3H81.45V89.32H78.22Z" fill="#fff"/>
      <path d="M103.3,82.67c0,2.35-.34,3.77-1.19,5a6.1,6.1,0,0,1-9,0c-.84-1.19-1.19-2.61-1.19-5V75.06c0-2.35.35-3.76,1.19-5a6.08,6.08,0,0,1,9,0c.85,1.19,1.19,2.6,1.19,5Zm-8.18-.06a5.65,5.65,0,0,0,.41,2.85,2.46,2.46,0,0,0,4.14,0c.34-.62.4-1.16.4-2.85V75.12a5.49,5.49,0,0,0-.4-2.85,2.46,2.46,0,0,0-4.14,0,5.68,5.68,0,0,0-.41,2.85Z" fill="#fff"/>
      <path d="M105.12,68.41h3.36l3.13,15.89,2.76-15.89h3.29l-4,20.91h-4Z" fill="#fff"/>
      <path d="M119.76,68.41h9.47v3H123v5.52h4.61v3H123v6.46h6.24v3h-9.47Z" fill="#fff"/>
      <path d="M131.45,68.41h5.05a5.8,5.8,0,0,1,4.14,1.26,5.89,5.89,0,0,1,1.88,4.73c0,2.63-.94,4.45-2.82,5.42l3.07,9.5h-3.39l-2.75-8.59h-1.95v8.59h-3.23Zm4.42,9.34c1.38,0,2-.15,2.51-.65a4.48,4.48,0,0,0,0-5c-.5-.5-1.13-.66-2.51-.66h-1.19v6.36Z" fill="#fff"/>
      <path d="M12.86,98.26h-4v-3H20.17v3H16.09v17.93H12.86Z" fill="#fff"/>
      <path d="M22,95.28h3.22V104h4.61V95.28H33v20.91H29.79V107H25.18v9.22H22Z" fill="#fff"/>
      <path d="M36.19,95.28h9.46v3H39.42v5.52H44v3h-4.6v6.46h6.23v3H36.19Z" fill="#fff"/>
      <path d="M55.34,98.26h-4v-3H62.64v3H58.57v17.93H55.34Z" fill="#fff"/>
      <path d="M75.93,109.54c0,2.35-.34,3.77-1.19,5a6.09,6.09,0,0,1-9,0c-.85-1.19-1.19-2.61-1.19-5v-7.61c0-2.35.34-3.76,1.19-5a5.24,5.24,0,0,1,4.51-2,5.24,5.24,0,0,1,4.51,2c.85,1.19,1.19,2.6,1.19,5Zm-8.18-.06a5.77,5.77,0,0,0,.41,2.85,2.46,2.46,0,0,0,4.14,0c.34-.62.41-1.16.41-2.85V102a5.46,5.46,0,0,0-.41-2.85,2.46,2.46,0,0,0-4.14,0,5.8,5.8,0,0,0-.41,2.85Z" fill="#fff"/>
      <path d="M78.92,95.28h5.35c2.1,0,3.42.41,4.39,1.35,1.13,1.07,1.66,2.67,1.66,4.89s-.53,3.79-1.66,4.86c-1,.94-2.29,1.35-4.39,1.35H82.14v8.46H78.92Zm4.63,9.47c2.6,0,3.42-.78,3.42-3.26s-.82-3.23-3.42-3.23H82.14v6.49Z" fill="#fff"/>
      <path d="M92.14,112.83h3v3.36h-3Z" fill="#fff"/>
    </g>
  </g>
</svg>
