<svg xmlns="http://www.w3.org/2000/svg" width="728" height="90" viewBox="0 0 728 90">
  <g>
    <rect width="728" height="90" fill="none"/>
    <g>
      <rect x="620" y="60.63" width="87.85" height="23.38" fill="#256d68"/>
      <g>
        <path d="M638.22,74.58c.2,1.19.72,1.81,1.55,1.81a1.09,1.09,0,0,0,1.14-1.14c0-.64-.3-1-1.49-2a8.92,8.92,0,0,1-1.83-1.64A2.75,2.75,0,0,1,637,70a2.44,2.44,0,0,1,2.61-2.47c1.43,0,2.39.86,2.81,2.52l-1.49.44c-.24-1-.69-1.5-1.32-1.5a1,1,0,0,0-1,1,1.51,1.51,0,0,0,.42,1,9.87,9.87,0,0,0,1.32,1.1,7.87,7.87,0,0,1,1.49,1.36,3,3,0,0,1,.65,1.84,2.53,2.53,0,0,1-2.75,2.57c-1.71,0-2.72-.94-3-2.84Z" fill="#fff"/>
        <path d="M643.78,67.64h4.53v1.43h-3v2.66h2.2v1.43h-2.2v3.11h3v1.44h-4.53Z" fill="#fff"/>
        <path d="M649.85,67.64h4.53v1.43h-3v2.66h2.21v1.43h-2.21v3.11h3v1.44h-4.53Z" fill="#fff"/>
        <path d="M657.89,67.64h2.42a2.76,2.76,0,0,1,2,.6,2.87,2.87,0,0,1,.91,2.28,2.67,2.67,0,0,1-1.36,2.61l1.47,4.58h-1.62l-1.32-4.14h-.93v4.14h-1.55Zm2.12,4.5c.66,0,1-.08,1.2-.32a2.13,2.13,0,0,0,0-2.43c-.24-.24-.54-.32-1.2-.32h-.57v3.07Z" fill="#fff"/>
        <path d="M664.62,67.64h4.54v1.43h-3v2.66h2.21v1.43h-2.21v3.11h3v1.44h-4.54Z" fill="#fff"/>
        <path d="M675.75,74.52c0,2.17-1,3.34-2.75,3.34a2.47,2.47,0,0,1-2.23-1.12,4.65,4.65,0,0,1-.48-2.7V71.22c0-1.59.12-2.16.58-2.8a2.54,2.54,0,0,1,2.12-.93c1.71,0,2.72,1.15,2.72,3.12v.3h-1.55V70.7c0-1.14-.41-1.75-1.19-1.75a1,1,0,0,0-.9.5,2.7,2.7,0,0,0-.24,1.45v3.35a4.27,4.27,0,0,0,.17,1.49,1,1,0,0,0,1,.65c.8,0,1.2-.65,1.2-2,0-.05,0-.15,0-.26h1.56Z" fill="#fff"/>
        <path d="M677.12,67.64h1.55V77.71h-1.55Z" fill="#fff"/>
        <path d="M680.23,67.64h2.56a2.83,2.83,0,0,1,2.11.65,3.88,3.88,0,0,1,0,4.69,2.83,2.83,0,0,1-2.11.65h-1v4.08h-1.54Zm2.22,4.56c1.24,0,1.63-.38,1.63-1.57s-.39-1.56-1.63-1.56h-.68V72.2Z" fill="#fff"/>
        <path d="M687,67.64h4.53v1.43h-3v2.66h2.21v1.43h-2.21v3.11h3v1.44H687Z" fill="#fff"/>
      </g>
    </g>
  </g>
</svg>
