<svg xmlns="http://www.w3.org/2000/svg" width="728" height="90" viewBox="0 0 728 90">
  <g>
    <rect width="728" height="90" fill="none"/>
    <g>
      <polygon points="626.68 53.6 629.13 53.6 629.13 54.71 625.45 54.71 625.45 46.84 626.68 46.84 626.68 53.6"/>
      <path d="M634.23,52.21a3,3,0,0,1-.45,1.86,2.33,2.33,0,0,1-3.27.16s-.11-.1-.16-.16a3.11,3.11,0,0,1-.45-1.86V49.34a3.05,3.05,0,0,1,.45-1.86,2.31,2.31,0,0,1,3.24-.18l.19.18a3,3,0,0,1,.45,1.86Zm-3.1,0a2.21,2.21,0,0,0,.15,1.08,1,1,0,0,0,1.3.28.9.9,0,0,0,.27-.28,2,2,0,0,0,.15-1.08V49.43a2,2,0,0,0-.15-1.07.93.93,0,0,0-1.57,0,2.17,2.17,0,0,0-.15,1.07Z"/>
      <path d="M639.62,52.21a3,3,0,0,1-.45,1.86,2.33,2.33,0,0,1-3.27.16,1.21,1.21,0,0,1-.16-.16,3,3,0,0,1-.46-1.86V49.34a2.93,2.93,0,0,1,.46-1.86A2.31,2.31,0,0,1,639,47.3l.19.18a3,3,0,0,1,.45,1.86Zm-3.11,0a2.1,2.1,0,0,0,.16,1.08.87.87,0,0,0,.79.43.93.93,0,0,0,.78-.43,2,2,0,0,0,.15-1.08V49.43a2,2,0,0,0-.15-1.07.93.93,0,0,0-.78-.43.87.87,0,0,0-.79.43,2,2,0,0,0-.16,1.07Z"/>
      <polygon points="641.98 50.1 643.76 46.84 645.08 46.84 643.4 49.7 645.32 54.71 643.97 54.71 642.64 51 641.98 52.09 641.98 54.71 640.75 54.71 640.75 46.84 641.98 46.84 641.98 50.1"/>
      <polygon points="649.09 54.71 647.87 54.71 647.87 46.84 651.5 46.84 651.5 47.96 649.09 47.96 649.09 50.09 650.88 50.09 650.88 51.21 649.09 51.21 649.09 54.71"/>
      <path d="M656.6,52.21a3,3,0,0,1-.45,1.86,2.33,2.33,0,0,1-3.27.16,1.21,1.21,0,0,1-.16-.16,3,3,0,0,1-.46-1.86V49.34a2.93,2.93,0,0,1,.46-1.86A2.31,2.31,0,0,1,656,47.3l.19.18a3,3,0,0,1,.45,1.86Zm-3.11,0a2.1,2.1,0,0,0,.16,1.08.93.93,0,0,0,1.57,0,2,2,0,0,0,.15-1.08V49.43a2,2,0,0,0-.15-1.07.94.94,0,0,0-1.29-.28.83.83,0,0,0-.28.28,2,2,0,0,0-.16,1.07Z"/>
      <path d="M658.93,54.71H657.7V46.83h1.93a2.23,2.23,0,0,1,1.57.48,2.18,2.18,0,0,1,.71,1.78,2.09,2.09,0,0,1-1.07,2L662,54.71h-1.29l-1.05-3.23h-.74Zm.45-4.35c.53,0,.77-.06.94-.26a1.58,1.58,0,0,0,0-1.85c-.19-.2-.43-.25-.94-.25h-.45v2.39Z"/>
      <polygon points="667.03 54.71 665.8 54.71 665.8 47.96 664.26 47.96 664.26 46.84 668.58 46.84 668.58 47.96 667.03 47.96 667.03 54.71"/>
      <polygon points="670.66 51.24 670.66 54.71 669.44 54.71 669.44 46.84 670.66 46.84 670.66 50.12 672.42 50.12 672.42 46.84 673.64 46.84 673.64 54.71 672.42 54.71 672.42 51.24 670.66 51.24"/>
      <polygon points="678.44 47.96 676.07 47.96 676.07 50.04 677.82 50.04 677.82 51.16 676.07 51.16 676.07 53.6 678.44 53.6 678.44 54.72 674.84 54.72 674.84 46.84 678.44 46.84 678.44 47.96"/>
      <path d="M684.1,49q-.29-1.17-1.05-1.17a.77.77,0,0,0-.79.77v0a1.13,1.13,0,0,0,.33.79,5.41,5.41,0,0,0,1,.86,6,6,0,0,1,1.18,1.07,2.28,2.28,0,0,1,.51,1.44,2,2,0,0,1-2,2h-.22a2.26,2.26,0,0,1-2.4-2.12v-.1l1.18-.34c.15.93.57,1.42,1.22,1.42a.86.86,0,0,0,.94-.77.43.43,0,0,0,0-.16c0-.49-.25-.82-1.18-1.53A6.43,6.43,0,0,1,681.42,50a2.15,2.15,0,0,1-.44-1.31,1.93,1.93,0,0,1,1.92-1.95h.15a2.26,2.26,0,0,1,2.23,2Z"/>
      <polygon points="689.79 47.96 687.42 47.96 687.42 50.04 689.17 50.04 689.17 51.16 687.42 51.16 687.42 53.6 689.79 53.6 689.79 54.72 686.19 54.72 686.19 46.84 689.79 46.84 689.79 47.96"/>
      <path d="M692.11,53l-.32,1.71h-1.2l1.52-7.88h1.68l1.61,7.88h-1.26L693.8,53Zm.84-4.64-.65,3.53h1.3Z"/>
      <polygon points="697.47 53.6 699.92 53.6 699.92 54.71 696.25 54.71 696.25 46.84 697.47 46.84 697.47 53.6"/>
      <rect x="700.73" y="53.45" width="1.15" height="1.26"/>
      <g>
        <path d="M662,44.85a20.12,20.12,0,0,1-19.9-17l-2,.19a2,2,0,0,1-2.14-1.86v-.12l-.09-9.26a2,2,0,0,1,1.87-2c.25,0,3.42-.34,5.15-.48a20.21,20.21,0,0,1,27.69-6.48,19.86,19.86,0,0,1,6.54,6.48c1.73.14,4.9.45,5.15.48a2,2,0,0,1,1.87,2S686,26.1,686,26.09a2,2,0,0,1-2,2h-.12l-2-.19a20.11,20.11,0,0,1-19.9,17" fill="#ffbf0f"/>
        <polygon points="652.22 26.66 653.59 26.66 654.67 29.11 655.82 26.66 657.2 26.66 658.01 31.25 656.62 31.25 656.23 28.61 656.21 28.61 654.93 31.25 654.38 31.25 653.16 28.61 653.14 28.61 652.7 31.25 651.32 31.25 652.22 26.66"/>
        <rect x="659.66" y="26.66" width="1.39" height="4.59"/>
        <polygon points="664.4 30.24 666.07 30.24 666.07 31.25 663.01 31.25 663.01 26.66 664.4 26.66 664.4 30.24"/>
        <polygon points="670.66 26.66 672.39 26.66 670.26 28.83 672.58 31.25 670.78 31.25 668.99 29.26 668.97 29.26 668.97 31.25 667.58 31.25 667.58 26.66 668.97 26.66 668.97 28.55 668.99 28.55 670.66 26.66"/>
        <path d="M656.33,14.19l-.66-1.38h-.31v1.38h-.92v-3.7h1.48a1.16,1.16,0,0,1,1.27,1.07v.1a1.07,1.07,0,0,1-.59,1l.81,1.54Zm-.45-2.89h-.52v.75h.52a.38.38,0,1,0,0-.75h0"/>
        <polygon points="658.68 14.16 658.68 10.46 661.22 10.46 661.22 11.26 659.6 11.26 659.6 11.88 660.98 11.88 660.98 12.7 659.6 12.7 659.6 13.35 661.22 13.35 661.22 14.16 658.68 14.16"/>
        <path d="M664.77,14.19l-.17-.56h-1.16l-.19.56h-.94l1.35-3.7h.71l1.36,3.7ZM664,11.85l-.34,1h.65Z"/>
        <polygon points="666.92 14.16 666.92 10.46 667.84 10.46 667.84 13.35 669.41 13.35 669.41 14.16 666.92 14.16"/>
        <path d="M684.77,16.84a.7.7,0,0,0-.7-.7h0c-1.89-.19-3.82-.37-5.78-.52a18.9,18.9,0,0,0-25.66-6.95,18.66,18.66,0,0,0-7,7c-2,.15-3.89.33-5.79.52h0a.71.71,0,0,0-.7.7h0l.08,9.26h0a.7.7,0,0,0,.71.7h0c1.08-.12,2.18-.22,3.28-.32a18.85,18.85,0,0,0,37.52,0c1.1.1,2.2.2,3.28.32h0a.7.7,0,0,0,.7-.7h0ZM662,7.81a17.24,17.24,0,0,1,14.37,7.67Q669.34,15,662,15c-4.94,0-9.71.16-14.37.47A17.28,17.28,0,0,1,662,7.81m-3.08,31.68a5.19,5.19,0,0,0-.79.12.91.91,0,0,1-.21-.18,1.77,1.77,0,0,1-.16-.22,2.07,2.07,0,0,1,0-.5,1.64,1.64,0,0,1,.11-.79c.07-.17.15-.34.23-.51s.16-.23.23-.35c.08.16.18.11.27.18a1,1,0,0,1-.09.24c0,.08,0,.15,0,.23s.43,1.55.43,1.6a.54.54,0,0,1,0,.18m4.72.1h0c-1.09,0-1,.35-2.46.08a9.33,9.33,0,0,0-1.83-.21,4,4,0,0,1-.26-1.17c0-.21,0-.48,0-.59a1.94,1.94,0,0,1,.17-.42c0-.06.08,0,.08,0s0,.16.05.18.1-.19.12-.24a.58.58,0,0,1,.14-.13s0,.2.07.2.05,0,.06-.06c0-.21,0-.21.22-.3a3,3,0,0,0,.36-.35c1.33.58,2.46-.23,3.31.19v.69a2.07,2.07,0,0,0,0,.55,3.59,3.59,0,0,1-.17,1c0,.09-.09.11-.09.15s.09,0,.13.1a.17.17,0,0,1,0,.17.1.1,0,0,0,0,.13m.06,0h0m.67,0a3.5,3.5,0,0,1-.31-.53,2.69,2.69,0,0,1,.06-.89,1.71,1.71,0,0,0,.14-.27l0,0h.06v0a.72.72,0,0,1,.08.32,4.71,4.71,0,0,1,0,.75.21.21,0,0,0,0,.19v.12s.1,0,.14.07,0,.18,0,.25h-.08m12.36-6-.13-2.24-.82,2.19-.74-2.17-.23,2.34-1.29-2,.34,2.31-1.77-1.56,1,2.13L671,33.59l1.5,1.8-2.32-.47,2,1.33-2.36.13,2.21.82-2.25.73,2.36.23c-2.27.69-1.86,2.26-6.89,1.59,0,0-.15-.14-.18-.18s-.07-.15-.15-.21a.44.44,0,0,1-.09-.27,4.91,4.91,0,0,1,0-.67.42.42,0,0,1,0-.22c0-.07,0-.11.06-.18a.74.74,0,0,0,.05-.32c0-.14.11-.77.11-.77a.78.78,0,0,0,.59-.45s.14-.15.3-.39a4.89,4.89,0,0,0,.29-1c0-.06.13-.47.15-.51s.24-.31.37-.49.06-.18.19-.31a.3.3,0,0,1,.36,0,6.46,6.46,0,0,0,.88,0c.08,0,.24-.13.28-.13s.12,0,.19,0a.41.41,0,0,0,.2-.14s.06,0,.09-.07a.4.4,0,0,0,.08-.23.35.35,0,0,0-.12-.23l-.26-.07a2,2,0,0,1-.34-.26c-.17-.13-.51-.33-.54-.38a.78.78,0,0,0-.15-.22c0-.06,0-.1,0-.14s-.24,0-.25,0a1.24,1.24,0,0,1-.22-.18.44.44,0,0,0-.26-.16c-.07,0-.11.05-.1.13s0,.1,0,.13,0,.1,0,.12a1.26,1.26,0,0,0-.33.16,3.32,3.32,0,0,1-1.53.65,1.21,1.21,0,0,0-.63,0,38.31,38.31,0,0,1-4,.18h0c-.09,0-.3-.07-.65-.09s-.87-.07-1.12-.07a1,1,0,0,0-.74.31,1.07,1.07,0,0,0-.28.41c0,.14,0,1.32,0,1.75,0,.27-.18.9-.18.9s-.21,0-.3.3-.22.31-.27.41a.5.5,0,0,0-.09.23.61.61,0,0,1,.27-.28.94.94,0,0,0-.24.58.86.86,0,0,1,.27-.33,1,1,0,0,0-.31.65l.1-.15a.24.24,0,0,1,0,.12l.14-.1a1.13,1.13,0,0,0-.23.45.92.92,0,0,1,.23-.29,1.66,1.66,0,0,0-.19.62,1.17,1.17,0,0,1,.36-.54.71.71,0,0,0,.31-.55,3,3,0,0,1,.21-.54.46.46,0,0,0-.07-.49c0-.18.08-.46.14-1a5.77,5.77,0,0,0,.09-1.17c0-.51.06-.53.06-.53a5.08,5.08,0,0,0,.12,1.1,9.22,9.22,0,0,1-.06,1.66,2.08,2.08,0,0,1-.26.59.7.7,0,0,0-.09.4c0,.15,0,1.62,0,1.68a.39.39,0,0,0-.08.21c0,.07.09.08.12.11a1.17,1.17,0,0,0,.17.28,24.35,24.35,0,0,0-6.6-1.69,17,17,0,0,1-6.08-11.6c5.52-.44,11.26-.68,17.16-.68s11.64.24,17.16.68a16.93,16.93,0,0,1-2.39,7.33"/>
        <path d="M645,22.69c0,1.17-.05,1.42-.4,1.86a2.14,2.14,0,0,1-1.58.69,2,2,0,0,1-1.59-.59c-.34-.43-.4-.65-.4-1.81v-3.1c0-1.17.06-1.41.4-1.85A2.18,2.18,0,0,1,643,17.2a2,2,0,0,1,1.58.58c.36.44.4.66.4,1.82v.5l-1.25,0V19.08c0-.74-.19-1-.72-1s-.75.29-.75,1v4.2c0,.74.2,1,.72,1s.75-.28.75-1V21.9l1.25,0Z" fill="#fff"/>
        <path d="M647.07,23.38l-.23,1.52-1.18.09,1.26-8.09,1.49-.09,1.48,7.91-1.18.07-.3-1.48Zm.8-3.7-.11-.78-.08-.65,0,.64-.12.82-.31,2.67,1-.06Z" fill="#fff"/>
        <polygon points="652.08 23.61 654.08 23.52 654.08 24.52 650.84 24.66 650.84 16.67 652.08 16.61 652.08 23.61" fill="#fff"/>
        <polygon points="656.37 24.46 655.12 24.49 655.12 16.5 656.37 16.47 656.37 24.46" fill="#fff"/>
        <polygon points="658.74 20.77 658.74 24.42 657.49 24.44 657.48 16.44 660.66 16.39 660.66 17.38 658.74 17.41 658.74 19.77 660.5 19.74 660.5 20.74 658.74 20.77" fill="#fff"/>
        <path d="M665.49,21.94c0,1.17-.06,1.43-.41,1.85a2.26,2.26,0,0,1-3.16,0h0c-.35-.44-.41-.67-.41-1.83V18.87c0-1.17.06-1.4.41-1.83a2.07,2.07,0,0,1,1.58-.64,2.05,2.05,0,0,1,1.58.64c.36.46.41.67.41,1.83Zm-2.72.59c0,.74.18,1,.72,1s.75-.26.75-1V18.34c0-.74-.2-1-.73-1s-.74.26-.74,1Z" fill="#fff"/>
        <path d="M668.67,16.47c.81,0,1.09.1,1.31.39a2.56,2.56,0,0,1,.29,1.51V19c0,1.09-.19,1.41-.93,1.5.75.19.93.52.93,1.68v1a3.33,3.33,0,0,0,.25,1.43l-1.27-.05a4.58,4.58,0,0,1-.23-1.56v-.7c0-1-.16-1.42-.59-1.43h-.54v3.65h-1.26v-8Zm-.82,3.42h.74c.36,0,.43-.11.43-.81v-.76c0-.7-.07-.87-.43-.88h-.74Z" fill="#fff"/>
        <polygon points="673.93 24.7 672.33 18.44 672.37 18.96 672.45 19.72 672.47 20.21 672.6 24.64 671.44 24.59 671.44 16.58 672.72 16.64 674.06 21.59 674.17 22.03 674.26 22.48 674.33 22.77 674.3 22.31 674.22 21.32 674.18 20.7 674.09 16.71 675.29 16.78 675.3 24.79 673.93 24.7" fill="#fff"/>
        <polygon points="677.76 24.95 676.51 24.86 676.49 16.88 677.76 16.96 677.76 24.95" fill="#fff"/>
        <path d="M680.15,23.61l-.24,1.51-1.19-.1L680,17.14l1.48.13L683,25.4l-1.18-.12-.31-1.56ZM681,20l-.12-.8-.08-.66,0,.62-.11.81-.32,2.63,1.05.09Z" fill="#fff"/>
        <path d="M676.13,34.58a2.67,2.67,0,0,0-.56-.06,2.71,2.71,0,0,0-2.74,2.69A2.81,2.81,0,0,0,673,38a17.26,17.26,0,0,0,3.18-3.43" fill="#fff"/>
        <path d="M683.16,28.67a.84.84,0,1,1-.87.84.84.84,0,0,1,.84-.84h0m0,1.5a.66.66,0,0,0,.69-.64.65.65,0,0,0-.64-.68.66.66,0,0,0-.69.64v0a.64.64,0,0,0,.62.66h0M682.83,29h.35c.24,0,.38.08.38.29a.24.24,0,0,1-.23.25h0l.26.41h-.2l-.23-.41H683V30h-.19Zm.19.4h.16c.11,0,.19,0,.19-.13s-.11-.12-.2-.12H683Z"/>
      </g>
    </g>
  </g>
</svg>
