<svg xmlns="http://www.w3.org/2000/svg" width="728" height="90" viewBox="0 0 728 90">
  <g>
    <rect width="728" height="90" fill="none"/>
    <g>
      <path d="M27.55,37.82c0,4.57-2,7-5.81,7A5.24,5.24,0,0,1,17,42.49c-.79-1.31-1-2.54-1-5.69V30.87c0-3.33.25-4.54,1.24-5.87a5.33,5.33,0,0,1,4.47-2c3.62,0,5.75,2.41,5.75,6.57v.63H24.19v-.44c0-2.41-.86-3.68-2.51-3.68a2.13,2.13,0,0,0-1.91,1.05,5.66,5.66,0,0,0-.5,3v7.05a8.9,8.9,0,0,0,.35,3.14,2.2,2.2,0,0,0,2.12,1.37c1.68,0,2.54-1.37,2.54-4.13a4.07,4.07,0,0,0,0-.54h3.3Z" fill="#fff"/>
      <path d="M33.52,23.35H38l4.29,21.17H38.91L38,39.91h-4.5l-.86,4.61H29.45Zm4,13.55-1.74-9.49L34,36.9Z" fill="#fff"/>
      <path d="M44.53,23.35H47.8V41.5h6.5v3H44.53Z" fill="#fff"/>
      <path d="M56.33,23.35H59.6V44.52H56.33Z" fill="#fff"/>
      <path d="M62.84,23.35h9.68v3H66.11v5.72h4.76v3H66.11v9.43H62.84Z" fill="#fff"/>
      <path d="M86,37.79c0,2.38-.35,3.81-1.21,5a6.16,6.16,0,0,1-9.14,0c-.86-1.2-1.2-2.63-1.2-5V30.08c0-2.38.34-3.81,1.2-5a6.16,6.16,0,0,1,9.14,0c.86,1.21,1.21,2.64,1.21,5Zm-8.29-.07a5.76,5.76,0,0,0,.42,2.89,2.48,2.48,0,0,0,4.19,0c.35-.63.41-1.17.41-2.89V30.14c0-1.71-.06-2.22-.41-2.89a2.5,2.5,0,0,0-4.19,0,5.81,5.81,0,0,0-.42,2.89Z" fill="#fff"/>
      <path d="M89.05,23.35h5.11a5.85,5.85,0,0,1,4.19,1.27,6,6,0,0,1,1.91,4.79c0,2.67-1,4.51-2.86,5.49l3.11,9.62H97.08l-2.79-8.7h-2v8.7H89.05Zm4.48,9.46c1.39,0,2-.16,2.54-.67a3.44,3.44,0,0,0,.79-2.54A3.46,3.46,0,0,0,96.07,27c-.51-.51-1.15-.67-2.54-.67H92.32v6.45Z" fill="#fff"/>
      <path d="M103,23.35h3.31l5.33,13.17V23.35h3.11V44.52h-2.92l-5.71-14.1v14.1H103Z" fill="#fff"/>
      <path d="M117.93,23.35h3.27V44.52h-3.27Z" fill="#fff"/>
      <path d="M127.74,23.35h4.47l4.29,21.17h-3.37l-.88-4.61h-4.51l-.86,4.61h-3.2Zm4,13.55L130,27.41l-1.71,9.49Z" fill="#fff"/>
      <path d="M155.89,46.07a4.55,4.55,0,0,1-4-1.78,7.14,7.14,0,0,1-2.82.54,5.41,5.41,0,0,1-4.51-2c-.86-1.2-1.21-2.63-1.21-5V30.08c0-2.38.35-3.81,1.21-5a6.16,6.16,0,0,1,9.14,0c.86,1.21,1.21,2.64,1.21,5v7.71a8.87,8.87,0,0,1-.8,4.35,2.09,2.09,0,0,0,1.75.88Zm-9.24-8.35a5.76,5.76,0,0,0,.42,2.89,2.33,2.33,0,0,0,2.09,1.15,2.36,2.36,0,0,0,2.1-1.15c.34-.63.41-1.17.41-2.89V30.14a5.61,5.61,0,0,0-.41-2.89,2.35,2.35,0,0,0-2.1-1.14,2.32,2.32,0,0,0-2.09,1.14,5.81,5.81,0,0,0-.42,2.89Z" fill="#fff"/>
      <path d="M169.15,37.69c0,2.67-.31,4-1.2,5.24a5.3,5.3,0,0,1-4.41,1.9,5.23,5.23,0,0,1-4.38-1.9c-.89-1.21-1.21-2.57-1.21-5.24V23.35h3.27V38.23c0,2.48.7,3.53,2.35,3.53s2.32-1,2.32-3.53V23.35h3.26Z" fill="#fff"/>
      <path d="M172.36,23.35h9.58v3h-6.31V32h4.66v3h-4.66V41.5h6.31v3h-9.58Z" fill="#fff"/>
      <path d="M186.67,38c.41,2.5,1.53,3.81,3.27,3.81a2.3,2.3,0,0,0,2.41-2.42c0-1.33-.63-2.15-3.14-4.12-3-2.35-3.05-2.45-3.87-3.46a5.77,5.77,0,0,1-1.18-3.53c0-3,2.29-5.2,5.53-5.2,3,0,5,1.81,5.93,5.3l-3.14.92c-.51-2.06-1.46-3.14-2.79-3.14a2.1,2.1,0,0,0-2.13,2.16,3.16,3.16,0,0,0,.89,2.12,19.33,19.33,0,0,0,2.79,2.32,17.26,17.26,0,0,1,3.14,2.86,6.21,6.21,0,0,1,1.37,3.87c0,3.2-2.35,5.39-5.81,5.39-3.62,0-5.74-2-6.41-6Z" fill="#fff"/>
      <path d="M209.68,37.79c0,2.38-.35,3.81-1.2,5a6.17,6.17,0,0,1-9.15,0c-.85-1.2-1.2-2.63-1.2-5V30.08c0-2.38.35-3.81,1.2-5a6.17,6.17,0,0,1,9.15,0c.85,1.21,1.2,2.64,1.2,5Zm-8.28-.07a5.79,5.79,0,0,0,.41,2.89,2.48,2.48,0,0,0,4.19,0c.35-.63.41-1.17.41-2.89V30.14c0-1.71-.06-2.22-.41-2.89a2.5,2.5,0,0,0-4.19,0,5.84,5.84,0,0,0-.41,2.89Z" fill="#fff"/>
      <path d="M217.55,23.35h9.68v3h-6.41v5.72h4.76v3h-4.76v9.43h-3.27Z" fill="#fff"/>
      <path d="M229.2,23.35h5.11a5.88,5.88,0,0,1,4.19,1.27,6,6,0,0,1,1.9,4.79c0,2.67-1,4.51-2.86,5.49l3.12,9.62h-3.43l-2.8-8.7h-2v8.7H229.2Zm4.47,9.46c1.4,0,2-.16,2.54-.67a3.44,3.44,0,0,0,.8-2.54,3.46,3.46,0,0,0-.8-2.57c-.51-.51-1.14-.67-2.54-.67h-1.2v6.45Z" fill="#fff"/>
      <path d="M243.13,23.35h9.58v3H246.4V32h4.66v3H246.4V41.5h6.31v3h-9.58Z" fill="#fff"/>
      <path d="M257.44,38c.41,2.5,1.53,3.81,3.27,3.81a2.3,2.3,0,0,0,2.41-2.42c0-1.33-.63-2.15-3.14-4.12-3-2.35-3.05-2.45-3.87-3.46a5.76,5.76,0,0,1-1.17-3.53c0-3,2.28-5.2,5.52-5.2,3,0,5,1.81,5.93,5.3l-3.14.92c-.51-2.06-1.46-3.14-2.79-3.14a2.1,2.1,0,0,0-2.13,2.16,3.16,3.16,0,0,0,.89,2.12A19.33,19.33,0,0,0,262,32.71a17.26,17.26,0,0,1,3.14,2.86,6.21,6.21,0,0,1,1.37,3.87c0,3.2-2.35,5.39-5.81,5.39-3.62,0-5.74-2-6.41-6Z" fill="#fff"/>
      <path d="M280.45,37.82c0,4.57-2,7-5.81,7a5.24,5.24,0,0,1-4.73-2.34c-.79-1.31-1-2.54-1-5.69V30.87c0-3.33.25-4.54,1.24-5.87a5.34,5.34,0,0,1,4.47-2c3.62,0,5.75,2.41,5.75,6.57v.63h-3.27v-.44c0-2.41-.86-3.68-2.51-3.68a2.1,2.1,0,0,0-1.9,1.05,5.54,5.54,0,0,0-.51,3v7.05a8.9,8.9,0,0,0,.35,3.14,2.2,2.2,0,0,0,2.12,1.37c1.69,0,2.54-1.37,2.54-4.13a4.07,4.07,0,0,0,0-.54h3.3Z" fill="#fff"/>
      <path d="M294.64,37.79c0,2.38-.35,3.81-1.21,5a6.16,6.16,0,0,1-9.14,0c-.86-1.2-1.21-2.63-1.21-5V30.08c0-2.38.35-3.81,1.21-5a6.16,6.16,0,0,1,9.14,0c.86,1.21,1.21,2.64,1.21,5Zm-8.29-.07a5.76,5.76,0,0,0,.42,2.89,2.33,2.33,0,0,0,2.09,1.15,2.36,2.36,0,0,0,2.1-1.15c.34-.63.41-1.17.41-2.89V30.14a5.61,5.61,0,0,0-.41-2.89,2.35,2.35,0,0,0-2.1-1.14,2.32,2.32,0,0,0-2.09,1.14,5.81,5.81,0,0,0-.42,2.89Z" fill="#fff"/>
      <path d="M16.22,50.55h5.43c2.12,0,3.46.41,4.44,1.37,1.14,1.07,1.68,2.69,1.68,4.95s-.54,3.84-1.68,4.92c-1,1-2.32,1.36-4.44,1.36H19.49v8.57H16.22Zm4.7,9.58c2.63,0,3.46-.79,3.46-3.3s-.83-3.26-3.46-3.26H19.49v6.56Z" fill="#fff"/>
      <path d="M41.48,64.9c0,2.66-.31,4-1.2,5.23A5.33,5.33,0,0,1,35.86,72a5.26,5.26,0,0,1-4.38-1.91c-.88-1.2-1.2-2.57-1.2-5.23V50.55h3.27V65.44c0,2.47.7,3.52,2.35,3.52s2.31-1,2.31-3.52V50.55h3.27Z" fill="#fff"/>
      <path d="M47.38,53.57H43.29v-3H54.78v3H50.65V71.72H47.38Z" fill="#fff"/>
      <path d="M59.22,65.15c.41,2.51,1.53,3.81,3.27,3.81a2.3,2.3,0,0,0,2.41-2.41c0-1.34-.63-2.16-3.14-4.13-2.95-2.35-3-2.44-3.87-3.46a5.74,5.74,0,0,1-1.18-3.52c0-3,2.29-5.21,5.53-5.21,3,0,5,1.81,5.93,5.3L65,56.45c-.51-2.06-1.46-3.14-2.79-3.14a2.1,2.1,0,0,0-2.13,2.16A3.21,3.21,0,0,0,61,57.6a18.93,18.93,0,0,0,2.79,2.31,17.26,17.26,0,0,1,3.14,2.86,6.25,6.25,0,0,1,1.37,3.87c0,3.21-2.35,5.4-5.81,5.4-3.62,0-5.74-2-6.41-6Z" fill="#fff"/>
      <path d="M75.44,50.55h3.27V71.72H75.44Z" fill="#fff"/>
      <path d="M85.09,53.57H81v-3H92.48v3H88.36V71.72H85.09Z" fill="#fff"/>
      <path d="M110.48,65c0,2.38-.35,3.81-1.21,5a6.16,6.16,0,0,1-9.14,0c-.86-1.21-1.21-2.64-1.21-5V57.28c0-2.38.35-3.81,1.21-5a6.16,6.16,0,0,1,9.14,0c.86,1.21,1.21,2.64,1.21,5Zm-8.29-.06a6,6,0,0,0,.41,2.89A2.37,2.37,0,0,0,104.7,69a2.34,2.34,0,0,0,2.09-1.14c.35-.64.42-1.18.42-2.89V57.34a5.48,5.48,0,0,0-.42-2.89,2.34,2.34,0,0,0-2.09-1.14,2.37,2.37,0,0,0-2.1,1.14,6,6,0,0,0-.41,2.89Z" fill="#fff"/>
      <path d="M112.32,50.55h3.39l3.18,16.09,2.79-16.09H125l-4.09,21.17h-4.07Z" fill="#fff"/>
      <path d="M127.14,50.55h9.58v3h-6.31v5.58h4.66v3h-4.66v6.54h6.31v3h-9.58Z" fill="#fff"/>
      <path d="M139,50.55h5.11a5.85,5.85,0,0,1,4.19,1.27,6,6,0,0,1,1.91,4.79c0,2.67-1,4.51-2.86,5.49l3.11,9.62H147L144.21,63h-2v8.7H139ZM143.45,60c1.4,0,2-.16,2.54-.67a3.42,3.42,0,0,0,.79-2.54,3.47,3.47,0,0,0-.79-2.57c-.51-.51-1.14-.66-2.54-.66h-1.21V60Z" fill="#fff"/>
      <path d="M160.46,53.57h-4.09v-3h11.48v3h-4.12V71.72h-3.27Z" fill="#fff"/>
      <path d="M169.66,50.55h3.27v8.82h4.67V50.55h3.27V71.72H177.6V62.39h-4.67v9.33h-3.27Z" fill="#fff"/>
      <path d="M184.07,50.55h9.59v3h-6.32v5.58H192v3h-4.67v6.54h6.32v3h-9.59Z" fill="#fff"/>
      <path d="M203.46,53.57h-4.09v-3h11.49v3h-4.13V71.72h-3.27Z" fill="#fff"/>
      <path d="M224.31,65c0,2.38-.35,3.81-1.2,5A6.16,6.16,0,0,1,214,70c-.86-1.21-1.21-2.64-1.21-5V57.28c0-2.38.35-3.81,1.21-5a6.16,6.16,0,0,1,9.14,0c.85,1.21,1.2,2.64,1.2,5ZM216,64.93a5.84,5.84,0,0,0,.41,2.89,2.5,2.5,0,0,0,4.19,0c.35-.64.41-1.18.41-2.89V57.34c0-1.71-.06-2.22-.41-2.89a2.5,2.5,0,0,0-4.19,0,5.84,5.84,0,0,0-.41,2.89Z" fill="#fff"/>
      <path d="M227.33,50.55h5.42c2.13,0,3.46.41,4.45,1.37,1.14,1.07,1.68,2.69,1.68,4.95s-.54,3.84-1.68,4.92c-1,1-2.32,1.36-4.45,1.36H230.6v8.57h-3.27ZM232,60.13c2.64,0,3.46-.79,3.46-3.3s-.82-3.26-3.46-3.26H230.6v6.56Z" fill="#fff"/>
      <path d="M240.72,68.32h3.08v3.4h-3.08Z" fill="#fff"/>
    </g>
  </g>
</svg>
